G04 EAGLE Gerber RS-274X export*
G75*
%MOMM*%
%FSLAX34Y34*%
%LPD*%
%INTop Copper*%
%IPPOS*%
%AMOC8*
5,1,8,0,0,1.08239X$1,22.5*%
G01*
%ADD10C,0.152400*%
%ADD11C,0.076200*%
%ADD12C,0.127000*%
%ADD13C,1.000000*%
%ADD14R,0.950000X0.850000*%
%ADD15R,1.150000X0.850000*%
%ADD16R,1.150000X0.970000*%
%ADD17R,0.950000X0.970000*%
%ADD18R,1.300000X1.500000*%
%ADD19R,1.200000X1.200000*%
%ADD20R,1.500000X1.600000*%
%ADD21R,1.346200X0.381000*%
%ADD22R,1.900000X1.900000*%
%ADD23R,1.800000X1.600000*%
%ADD24R,1.000000X1.400000*%
%ADD25R,1.500000X1.300000*%
%ADD26R,1.803000X1.600000*%
%ADD27C,0.254000*%


D10*
X100838Y382637D02*
X100838Y379024D01*
X100836Y378906D01*
X100830Y378788D01*
X100821Y378670D01*
X100807Y378553D01*
X100790Y378436D01*
X100769Y378319D01*
X100744Y378204D01*
X100715Y378089D01*
X100682Y377975D01*
X100646Y377863D01*
X100606Y377752D01*
X100563Y377642D01*
X100516Y377533D01*
X100466Y377426D01*
X100411Y377321D01*
X100354Y377218D01*
X100293Y377117D01*
X100229Y377017D01*
X100162Y376920D01*
X100092Y376825D01*
X100018Y376733D01*
X99942Y376642D01*
X99862Y376555D01*
X99780Y376470D01*
X99695Y376388D01*
X99608Y376308D01*
X99517Y376232D01*
X99425Y376158D01*
X99330Y376088D01*
X99233Y376021D01*
X99133Y375957D01*
X99032Y375896D01*
X98929Y375839D01*
X98824Y375784D01*
X98717Y375734D01*
X98608Y375687D01*
X98498Y375644D01*
X98387Y375604D01*
X98275Y375568D01*
X98161Y375535D01*
X98046Y375506D01*
X97931Y375481D01*
X97814Y375460D01*
X97697Y375443D01*
X97580Y375429D01*
X97462Y375420D01*
X97344Y375414D01*
X97226Y375412D01*
X88194Y375412D01*
X88076Y375414D01*
X87958Y375420D01*
X87840Y375429D01*
X87722Y375443D01*
X87605Y375460D01*
X87489Y375481D01*
X87374Y375506D01*
X87259Y375535D01*
X87145Y375568D01*
X87033Y375604D01*
X86921Y375644D01*
X86811Y375687D01*
X86703Y375734D01*
X86596Y375785D01*
X86491Y375839D01*
X86388Y375896D01*
X86286Y375957D01*
X86187Y376021D01*
X86090Y376088D01*
X85995Y376159D01*
X85902Y376232D01*
X85812Y376309D01*
X85724Y376388D01*
X85639Y376470D01*
X85557Y376555D01*
X85478Y376643D01*
X85401Y376733D01*
X85328Y376826D01*
X85257Y376920D01*
X85190Y377018D01*
X85126Y377117D01*
X85065Y377218D01*
X85008Y377322D01*
X84954Y377427D01*
X84903Y377534D01*
X84856Y377642D01*
X84813Y377752D01*
X84773Y377864D01*
X84737Y377976D01*
X84704Y378090D01*
X84675Y378205D01*
X84650Y378320D01*
X84629Y378436D01*
X84612Y378553D01*
X84598Y378671D01*
X84589Y378789D01*
X84583Y378907D01*
X84581Y379025D01*
X84582Y379024D02*
X84582Y382637D01*
X88194Y388478D02*
X84582Y392993D01*
X100838Y392993D01*
X100838Y388478D02*
X100838Y397509D01*
X153162Y500578D02*
X153162Y512318D01*
X153162Y500578D02*
X153164Y500445D01*
X153170Y500313D01*
X153180Y500181D01*
X153193Y500049D01*
X153211Y499917D01*
X153232Y499787D01*
X153257Y499656D01*
X153286Y499527D01*
X153319Y499399D01*
X153355Y499271D01*
X153395Y499145D01*
X153439Y499020D01*
X153487Y498896D01*
X153538Y498774D01*
X153593Y498653D01*
X153651Y498534D01*
X153713Y498416D01*
X153778Y498301D01*
X153847Y498187D01*
X153918Y498076D01*
X153994Y497967D01*
X154072Y497860D01*
X154153Y497755D01*
X154238Y497653D01*
X154325Y497553D01*
X154415Y497456D01*
X154508Y497361D01*
X154604Y497270D01*
X154702Y497181D01*
X154803Y497095D01*
X154907Y497012D01*
X155013Y496932D01*
X155121Y496856D01*
X155231Y496782D01*
X155344Y496712D01*
X155458Y496645D01*
X155575Y496582D01*
X155693Y496522D01*
X155813Y496465D01*
X155935Y496412D01*
X156058Y496363D01*
X156182Y496317D01*
X156308Y496275D01*
X156435Y496237D01*
X156563Y496202D01*
X156692Y496171D01*
X156821Y496144D01*
X156952Y496121D01*
X157083Y496101D01*
X157215Y496086D01*
X157347Y496074D01*
X157479Y496066D01*
X157612Y496062D01*
X157744Y496062D01*
X157877Y496066D01*
X158009Y496074D01*
X158141Y496086D01*
X158273Y496101D01*
X158404Y496121D01*
X158535Y496144D01*
X158664Y496171D01*
X158793Y496202D01*
X158921Y496237D01*
X159048Y496275D01*
X159174Y496317D01*
X159298Y496363D01*
X159421Y496412D01*
X159543Y496465D01*
X159663Y496522D01*
X159781Y496582D01*
X159898Y496645D01*
X160012Y496712D01*
X160125Y496782D01*
X160235Y496856D01*
X160343Y496932D01*
X160449Y497012D01*
X160553Y497095D01*
X160654Y497181D01*
X160752Y497270D01*
X160848Y497361D01*
X160941Y497456D01*
X161031Y497553D01*
X161118Y497653D01*
X161203Y497755D01*
X161284Y497860D01*
X161362Y497967D01*
X161438Y498076D01*
X161509Y498187D01*
X161578Y498301D01*
X161643Y498416D01*
X161705Y498534D01*
X161763Y498653D01*
X161818Y498774D01*
X161869Y498896D01*
X161917Y499020D01*
X161961Y499145D01*
X162001Y499271D01*
X162037Y499399D01*
X162070Y499527D01*
X162099Y499656D01*
X162124Y499787D01*
X162145Y499917D01*
X162163Y500049D01*
X162176Y500181D01*
X162186Y500313D01*
X162192Y500445D01*
X162194Y500578D01*
X162193Y500578D02*
X162193Y512318D01*
X169314Y508706D02*
X173830Y512318D01*
X173830Y496062D01*
X178345Y496062D02*
X169314Y496062D01*
X306832Y426212D02*
X323088Y426212D01*
X306832Y426212D02*
X306832Y430728D01*
X306834Y430861D01*
X306840Y430993D01*
X306850Y431125D01*
X306863Y431257D01*
X306881Y431389D01*
X306902Y431519D01*
X306927Y431650D01*
X306956Y431779D01*
X306989Y431907D01*
X307025Y432035D01*
X307065Y432161D01*
X307109Y432286D01*
X307157Y432410D01*
X307208Y432532D01*
X307263Y432653D01*
X307321Y432772D01*
X307383Y432890D01*
X307448Y433005D01*
X307517Y433119D01*
X307588Y433230D01*
X307664Y433339D01*
X307742Y433446D01*
X307823Y433551D01*
X307908Y433653D01*
X307995Y433753D01*
X308085Y433850D01*
X308178Y433945D01*
X308274Y434036D01*
X308372Y434125D01*
X308473Y434211D01*
X308577Y434294D01*
X308683Y434374D01*
X308791Y434450D01*
X308901Y434524D01*
X309014Y434594D01*
X309128Y434661D01*
X309245Y434724D01*
X309363Y434784D01*
X309483Y434841D01*
X309605Y434894D01*
X309728Y434943D01*
X309852Y434989D01*
X309978Y435031D01*
X310105Y435069D01*
X310233Y435104D01*
X310362Y435135D01*
X310491Y435162D01*
X310622Y435185D01*
X310753Y435205D01*
X310885Y435220D01*
X311017Y435232D01*
X311149Y435240D01*
X311282Y435244D01*
X311414Y435244D01*
X311547Y435240D01*
X311679Y435232D01*
X311811Y435220D01*
X311943Y435205D01*
X312074Y435185D01*
X312205Y435162D01*
X312334Y435135D01*
X312463Y435104D01*
X312591Y435069D01*
X312718Y435031D01*
X312844Y434989D01*
X312968Y434943D01*
X313091Y434894D01*
X313213Y434841D01*
X313333Y434784D01*
X313451Y434724D01*
X313568Y434661D01*
X313682Y434594D01*
X313795Y434524D01*
X313905Y434450D01*
X314013Y434374D01*
X314119Y434294D01*
X314223Y434211D01*
X314324Y434125D01*
X314422Y434036D01*
X314518Y433945D01*
X314611Y433850D01*
X314701Y433753D01*
X314788Y433653D01*
X314873Y433551D01*
X314954Y433446D01*
X315032Y433339D01*
X315108Y433230D01*
X315179Y433119D01*
X315248Y433005D01*
X315313Y432890D01*
X315375Y432772D01*
X315433Y432653D01*
X315488Y432532D01*
X315539Y432410D01*
X315587Y432286D01*
X315631Y432161D01*
X315671Y432035D01*
X315707Y431907D01*
X315740Y431779D01*
X315769Y431650D01*
X315794Y431519D01*
X315815Y431389D01*
X315833Y431257D01*
X315846Y431125D01*
X315856Y430993D01*
X315862Y430861D01*
X315864Y430728D01*
X315863Y430728D02*
X315863Y426212D01*
X315863Y431631D02*
X323088Y435243D01*
X310444Y441752D02*
X306832Y446267D01*
X323088Y446267D01*
X323088Y441752D02*
X323088Y450783D01*
X278328Y546862D02*
X278328Y563118D01*
X282843Y563118D02*
X273812Y563118D01*
X289133Y563118D02*
X289133Y546862D01*
X289133Y563118D02*
X293649Y563118D01*
X293782Y563116D01*
X293914Y563110D01*
X294046Y563100D01*
X294178Y563087D01*
X294310Y563069D01*
X294440Y563048D01*
X294571Y563023D01*
X294700Y562994D01*
X294828Y562961D01*
X294956Y562925D01*
X295082Y562885D01*
X295207Y562841D01*
X295331Y562793D01*
X295453Y562742D01*
X295574Y562687D01*
X295693Y562629D01*
X295811Y562567D01*
X295926Y562502D01*
X296040Y562433D01*
X296151Y562362D01*
X296260Y562286D01*
X296367Y562208D01*
X296472Y562127D01*
X296574Y562042D01*
X296674Y561955D01*
X296771Y561865D01*
X296866Y561772D01*
X296957Y561676D01*
X297046Y561578D01*
X297132Y561477D01*
X297215Y561373D01*
X297295Y561267D01*
X297371Y561159D01*
X297445Y561049D01*
X297515Y560936D01*
X297582Y560822D01*
X297645Y560705D01*
X297705Y560587D01*
X297762Y560467D01*
X297815Y560345D01*
X297864Y560222D01*
X297910Y560098D01*
X297952Y559972D01*
X297990Y559845D01*
X298025Y559717D01*
X298056Y559588D01*
X298083Y559459D01*
X298106Y559328D01*
X298126Y559197D01*
X298141Y559065D01*
X298153Y558933D01*
X298161Y558801D01*
X298165Y558668D01*
X298165Y558536D01*
X298161Y558403D01*
X298153Y558271D01*
X298141Y558139D01*
X298126Y558007D01*
X298106Y557876D01*
X298083Y557745D01*
X298056Y557616D01*
X298025Y557487D01*
X297990Y557359D01*
X297952Y557232D01*
X297910Y557106D01*
X297864Y556982D01*
X297815Y556859D01*
X297762Y556737D01*
X297705Y556617D01*
X297645Y556499D01*
X297582Y556382D01*
X297515Y556268D01*
X297445Y556155D01*
X297371Y556045D01*
X297295Y555937D01*
X297215Y555831D01*
X297132Y555727D01*
X297046Y555626D01*
X296957Y555528D01*
X296866Y555432D01*
X296771Y555339D01*
X296674Y555249D01*
X296574Y555162D01*
X296472Y555077D01*
X296367Y554996D01*
X296260Y554918D01*
X296151Y554842D01*
X296040Y554771D01*
X295926Y554702D01*
X295811Y554637D01*
X295693Y554575D01*
X295574Y554517D01*
X295453Y554462D01*
X295331Y554411D01*
X295207Y554363D01*
X295082Y554319D01*
X294956Y554279D01*
X294828Y554243D01*
X294700Y554210D01*
X294571Y554181D01*
X294440Y554156D01*
X294310Y554135D01*
X294178Y554117D01*
X294046Y554104D01*
X293914Y554094D01*
X293782Y554088D01*
X293649Y554086D01*
X293649Y554087D02*
X289133Y554087D01*
X304032Y559506D02*
X308548Y563118D01*
X308548Y546862D01*
X304032Y546862D02*
X313064Y546862D01*
X573532Y487878D02*
X589788Y487878D01*
X573532Y483362D02*
X573532Y492393D01*
X573532Y498683D02*
X589788Y498683D01*
X573532Y498683D02*
X573532Y503199D01*
X573534Y503332D01*
X573540Y503464D01*
X573550Y503596D01*
X573563Y503728D01*
X573581Y503860D01*
X573602Y503990D01*
X573627Y504121D01*
X573656Y504250D01*
X573689Y504378D01*
X573725Y504506D01*
X573765Y504632D01*
X573809Y504757D01*
X573857Y504881D01*
X573908Y505003D01*
X573963Y505124D01*
X574021Y505243D01*
X574083Y505361D01*
X574148Y505476D01*
X574217Y505590D01*
X574288Y505701D01*
X574364Y505810D01*
X574442Y505917D01*
X574523Y506022D01*
X574608Y506124D01*
X574695Y506224D01*
X574785Y506321D01*
X574878Y506416D01*
X574974Y506507D01*
X575072Y506596D01*
X575173Y506682D01*
X575277Y506765D01*
X575383Y506845D01*
X575491Y506921D01*
X575601Y506995D01*
X575714Y507065D01*
X575828Y507132D01*
X575945Y507195D01*
X576063Y507255D01*
X576183Y507312D01*
X576305Y507365D01*
X576428Y507414D01*
X576552Y507460D01*
X576678Y507502D01*
X576805Y507540D01*
X576933Y507575D01*
X577062Y507606D01*
X577191Y507633D01*
X577322Y507656D01*
X577453Y507676D01*
X577585Y507691D01*
X577717Y507703D01*
X577849Y507711D01*
X577982Y507715D01*
X578114Y507715D01*
X578247Y507711D01*
X578379Y507703D01*
X578511Y507691D01*
X578643Y507676D01*
X578774Y507656D01*
X578905Y507633D01*
X579034Y507606D01*
X579163Y507575D01*
X579291Y507540D01*
X579418Y507502D01*
X579544Y507460D01*
X579668Y507414D01*
X579791Y507365D01*
X579913Y507312D01*
X580033Y507255D01*
X580151Y507195D01*
X580268Y507132D01*
X580382Y507065D01*
X580495Y506995D01*
X580605Y506921D01*
X580713Y506845D01*
X580819Y506765D01*
X580923Y506682D01*
X581024Y506596D01*
X581122Y506507D01*
X581218Y506416D01*
X581311Y506321D01*
X581401Y506224D01*
X581488Y506124D01*
X581573Y506022D01*
X581654Y505917D01*
X581732Y505810D01*
X581808Y505701D01*
X581879Y505590D01*
X581948Y505476D01*
X582013Y505361D01*
X582075Y505243D01*
X582133Y505124D01*
X582188Y505003D01*
X582239Y504881D01*
X582287Y504757D01*
X582331Y504632D01*
X582371Y504506D01*
X582407Y504378D01*
X582440Y504250D01*
X582469Y504121D01*
X582494Y503990D01*
X582515Y503860D01*
X582533Y503728D01*
X582546Y503596D01*
X582556Y503464D01*
X582562Y503332D01*
X582564Y503199D01*
X582563Y503199D02*
X582563Y498683D01*
X573532Y518550D02*
X573534Y518675D01*
X573540Y518800D01*
X573549Y518925D01*
X573563Y519049D01*
X573580Y519173D01*
X573601Y519297D01*
X573626Y519419D01*
X573655Y519541D01*
X573687Y519662D01*
X573723Y519782D01*
X573763Y519901D01*
X573806Y520018D01*
X573853Y520134D01*
X573904Y520249D01*
X573958Y520361D01*
X574016Y520473D01*
X574076Y520582D01*
X574141Y520689D01*
X574208Y520795D01*
X574279Y520898D01*
X574353Y520999D01*
X574430Y521098D01*
X574510Y521194D01*
X574593Y521288D01*
X574678Y521379D01*
X574767Y521468D01*
X574858Y521553D01*
X574952Y521636D01*
X575048Y521716D01*
X575147Y521793D01*
X575248Y521867D01*
X575351Y521938D01*
X575457Y522005D01*
X575564Y522070D01*
X575673Y522130D01*
X575785Y522188D01*
X575897Y522242D01*
X576012Y522293D01*
X576128Y522340D01*
X576245Y522383D01*
X576364Y522423D01*
X576484Y522459D01*
X576605Y522491D01*
X576727Y522520D01*
X576849Y522545D01*
X576973Y522566D01*
X577097Y522583D01*
X577221Y522597D01*
X577346Y522606D01*
X577471Y522612D01*
X577596Y522614D01*
X573532Y518550D02*
X573534Y518407D01*
X573540Y518265D01*
X573550Y518122D01*
X573563Y517980D01*
X573581Y517839D01*
X573602Y517697D01*
X573627Y517557D01*
X573656Y517417D01*
X573689Y517278D01*
X573726Y517140D01*
X573766Y517003D01*
X573810Y516868D01*
X573858Y516733D01*
X573910Y516600D01*
X573965Y516468D01*
X574024Y516338D01*
X574086Y516210D01*
X574152Y516083D01*
X574221Y515958D01*
X574293Y515835D01*
X574369Y515714D01*
X574448Y515596D01*
X574531Y515479D01*
X574616Y515365D01*
X574705Y515253D01*
X574796Y515144D01*
X574891Y515037D01*
X574988Y514932D01*
X575089Y514831D01*
X575192Y514732D01*
X575297Y514636D01*
X575406Y514543D01*
X575517Y514453D01*
X575630Y514366D01*
X575745Y514282D01*
X575863Y514202D01*
X575983Y514124D01*
X576105Y514050D01*
X576229Y513980D01*
X576355Y513912D01*
X576483Y513849D01*
X576612Y513788D01*
X576743Y513731D01*
X576875Y513678D01*
X577009Y513629D01*
X577144Y513583D01*
X580757Y521258D02*
X580665Y521352D01*
X580571Y521442D01*
X580474Y521530D01*
X580374Y521615D01*
X580272Y521697D01*
X580167Y521775D01*
X580060Y521851D01*
X579951Y521923D01*
X579840Y521992D01*
X579726Y522058D01*
X579611Y522120D01*
X579494Y522179D01*
X579375Y522234D01*
X579255Y522285D01*
X579133Y522333D01*
X579010Y522378D01*
X578886Y522418D01*
X578760Y522455D01*
X578633Y522488D01*
X578506Y522517D01*
X578377Y522543D01*
X578248Y522564D01*
X578118Y522582D01*
X577988Y522595D01*
X577858Y522605D01*
X577727Y522611D01*
X577596Y522613D01*
X580757Y521259D02*
X589788Y513582D01*
X589788Y522614D01*
X227838Y335478D02*
X211582Y335478D01*
X211582Y339993D02*
X211582Y330962D01*
X211582Y346283D02*
X227838Y346283D01*
X211582Y346283D02*
X211582Y350799D01*
X211584Y350932D01*
X211590Y351064D01*
X211600Y351196D01*
X211613Y351328D01*
X211631Y351460D01*
X211652Y351590D01*
X211677Y351721D01*
X211706Y351850D01*
X211739Y351978D01*
X211775Y352106D01*
X211815Y352232D01*
X211859Y352357D01*
X211907Y352481D01*
X211958Y352603D01*
X212013Y352724D01*
X212071Y352843D01*
X212133Y352961D01*
X212198Y353076D01*
X212267Y353190D01*
X212338Y353301D01*
X212414Y353410D01*
X212492Y353517D01*
X212573Y353622D01*
X212658Y353724D01*
X212745Y353824D01*
X212835Y353921D01*
X212928Y354016D01*
X213024Y354107D01*
X213122Y354196D01*
X213223Y354282D01*
X213327Y354365D01*
X213433Y354445D01*
X213541Y354521D01*
X213651Y354595D01*
X213764Y354665D01*
X213878Y354732D01*
X213995Y354795D01*
X214113Y354855D01*
X214233Y354912D01*
X214355Y354965D01*
X214478Y355014D01*
X214602Y355060D01*
X214728Y355102D01*
X214855Y355140D01*
X214983Y355175D01*
X215112Y355206D01*
X215241Y355233D01*
X215372Y355256D01*
X215503Y355276D01*
X215635Y355291D01*
X215767Y355303D01*
X215899Y355311D01*
X216032Y355315D01*
X216164Y355315D01*
X216297Y355311D01*
X216429Y355303D01*
X216561Y355291D01*
X216693Y355276D01*
X216824Y355256D01*
X216955Y355233D01*
X217084Y355206D01*
X217213Y355175D01*
X217341Y355140D01*
X217468Y355102D01*
X217594Y355060D01*
X217718Y355014D01*
X217841Y354965D01*
X217963Y354912D01*
X218083Y354855D01*
X218201Y354795D01*
X218318Y354732D01*
X218432Y354665D01*
X218545Y354595D01*
X218655Y354521D01*
X218763Y354445D01*
X218869Y354365D01*
X218973Y354282D01*
X219074Y354196D01*
X219172Y354107D01*
X219268Y354016D01*
X219361Y353921D01*
X219451Y353824D01*
X219538Y353724D01*
X219623Y353622D01*
X219704Y353517D01*
X219782Y353410D01*
X219858Y353301D01*
X219929Y353190D01*
X219998Y353076D01*
X220063Y352961D01*
X220125Y352843D01*
X220183Y352724D01*
X220238Y352603D01*
X220289Y352481D01*
X220337Y352357D01*
X220381Y352232D01*
X220421Y352106D01*
X220457Y351978D01*
X220490Y351850D01*
X220519Y351721D01*
X220544Y351590D01*
X220565Y351460D01*
X220583Y351328D01*
X220596Y351196D01*
X220606Y351064D01*
X220612Y350932D01*
X220614Y350799D01*
X220613Y350799D02*
X220613Y346283D01*
X227838Y361182D02*
X227838Y365698D01*
X227836Y365831D01*
X227830Y365963D01*
X227820Y366095D01*
X227807Y366227D01*
X227789Y366359D01*
X227768Y366489D01*
X227743Y366620D01*
X227714Y366749D01*
X227681Y366877D01*
X227645Y367005D01*
X227605Y367131D01*
X227561Y367256D01*
X227513Y367380D01*
X227462Y367502D01*
X227407Y367623D01*
X227349Y367742D01*
X227287Y367860D01*
X227222Y367975D01*
X227153Y368089D01*
X227082Y368200D01*
X227006Y368309D01*
X226928Y368416D01*
X226847Y368521D01*
X226762Y368623D01*
X226675Y368723D01*
X226585Y368820D01*
X226492Y368915D01*
X226396Y369006D01*
X226298Y369095D01*
X226197Y369181D01*
X226093Y369264D01*
X225987Y369344D01*
X225879Y369420D01*
X225769Y369494D01*
X225656Y369564D01*
X225542Y369631D01*
X225425Y369694D01*
X225307Y369754D01*
X225187Y369811D01*
X225065Y369864D01*
X224942Y369913D01*
X224818Y369959D01*
X224692Y370001D01*
X224565Y370039D01*
X224437Y370074D01*
X224308Y370105D01*
X224179Y370132D01*
X224048Y370155D01*
X223917Y370175D01*
X223785Y370190D01*
X223653Y370202D01*
X223521Y370210D01*
X223388Y370214D01*
X223256Y370214D01*
X223123Y370210D01*
X222991Y370202D01*
X222859Y370190D01*
X222727Y370175D01*
X222596Y370155D01*
X222465Y370132D01*
X222336Y370105D01*
X222207Y370074D01*
X222079Y370039D01*
X221952Y370001D01*
X221826Y369959D01*
X221702Y369913D01*
X221579Y369864D01*
X221457Y369811D01*
X221337Y369754D01*
X221219Y369694D01*
X221102Y369631D01*
X220988Y369564D01*
X220875Y369494D01*
X220765Y369420D01*
X220657Y369344D01*
X220551Y369264D01*
X220447Y369181D01*
X220346Y369095D01*
X220248Y369006D01*
X220152Y368915D01*
X220059Y368820D01*
X219969Y368723D01*
X219882Y368623D01*
X219797Y368521D01*
X219716Y368416D01*
X219638Y368309D01*
X219562Y368200D01*
X219491Y368089D01*
X219422Y367975D01*
X219357Y367860D01*
X219295Y367742D01*
X219237Y367623D01*
X219182Y367502D01*
X219131Y367380D01*
X219083Y367256D01*
X219039Y367131D01*
X218999Y367005D01*
X218963Y366877D01*
X218930Y366749D01*
X218901Y366620D01*
X218876Y366489D01*
X218855Y366359D01*
X218837Y366227D01*
X218824Y366095D01*
X218814Y365963D01*
X218808Y365831D01*
X218806Y365698D01*
X211582Y366601D02*
X211582Y361182D01*
X211582Y366601D02*
X211584Y366720D01*
X211590Y366840D01*
X211600Y366959D01*
X211614Y367077D01*
X211631Y367196D01*
X211653Y367313D01*
X211678Y367430D01*
X211708Y367545D01*
X211741Y367660D01*
X211778Y367774D01*
X211818Y367886D01*
X211863Y367997D01*
X211911Y368106D01*
X211962Y368214D01*
X212017Y368320D01*
X212076Y368424D01*
X212138Y368526D01*
X212203Y368626D01*
X212272Y368724D01*
X212344Y368820D01*
X212419Y368913D01*
X212496Y369003D01*
X212577Y369091D01*
X212661Y369176D01*
X212748Y369258D01*
X212837Y369338D01*
X212929Y369414D01*
X213023Y369488D01*
X213120Y369558D01*
X213218Y369625D01*
X213319Y369689D01*
X213423Y369749D01*
X213528Y369806D01*
X213635Y369859D01*
X213743Y369909D01*
X213853Y369955D01*
X213965Y369997D01*
X214078Y370036D01*
X214192Y370071D01*
X214307Y370102D01*
X214424Y370130D01*
X214541Y370153D01*
X214658Y370173D01*
X214777Y370189D01*
X214896Y370201D01*
X215015Y370209D01*
X215134Y370213D01*
X215254Y370213D01*
X215373Y370209D01*
X215492Y370201D01*
X215611Y370189D01*
X215730Y370173D01*
X215847Y370153D01*
X215964Y370130D01*
X216081Y370102D01*
X216196Y370071D01*
X216310Y370036D01*
X216423Y369997D01*
X216535Y369955D01*
X216645Y369909D01*
X216753Y369859D01*
X216860Y369806D01*
X216965Y369749D01*
X217069Y369689D01*
X217170Y369625D01*
X217268Y369558D01*
X217365Y369488D01*
X217459Y369414D01*
X217551Y369338D01*
X217640Y369258D01*
X217727Y369176D01*
X217811Y369091D01*
X217892Y369003D01*
X217969Y368913D01*
X218044Y368820D01*
X218116Y368724D01*
X218185Y368626D01*
X218250Y368526D01*
X218312Y368424D01*
X218371Y368320D01*
X218426Y368214D01*
X218477Y368106D01*
X218525Y367997D01*
X218570Y367886D01*
X218610Y367774D01*
X218647Y367660D01*
X218680Y367545D01*
X218710Y367430D01*
X218735Y367313D01*
X218757Y367196D01*
X218774Y367077D01*
X218788Y366959D01*
X218798Y366840D01*
X218804Y366720D01*
X218806Y366601D01*
X218807Y366601D02*
X218807Y362989D01*
X381067Y316738D02*
X381067Y300482D01*
X381067Y316738D02*
X385583Y316738D01*
X385716Y316736D01*
X385848Y316730D01*
X385980Y316720D01*
X386112Y316707D01*
X386244Y316689D01*
X386374Y316668D01*
X386505Y316643D01*
X386634Y316614D01*
X386762Y316581D01*
X386890Y316545D01*
X387016Y316505D01*
X387141Y316461D01*
X387265Y316413D01*
X387387Y316362D01*
X387508Y316307D01*
X387627Y316249D01*
X387745Y316187D01*
X387860Y316122D01*
X387974Y316053D01*
X388085Y315982D01*
X388194Y315906D01*
X388301Y315828D01*
X388406Y315747D01*
X388508Y315662D01*
X388608Y315575D01*
X388705Y315485D01*
X388800Y315392D01*
X388891Y315296D01*
X388980Y315198D01*
X389066Y315097D01*
X389149Y314993D01*
X389229Y314887D01*
X389305Y314779D01*
X389379Y314669D01*
X389449Y314556D01*
X389516Y314442D01*
X389579Y314325D01*
X389639Y314207D01*
X389696Y314087D01*
X389749Y313965D01*
X389798Y313842D01*
X389844Y313718D01*
X389886Y313592D01*
X389924Y313465D01*
X389959Y313337D01*
X389990Y313208D01*
X390017Y313079D01*
X390040Y312948D01*
X390060Y312817D01*
X390075Y312685D01*
X390087Y312553D01*
X390095Y312421D01*
X390099Y312288D01*
X390099Y312156D01*
X390095Y312023D01*
X390087Y311891D01*
X390075Y311759D01*
X390060Y311627D01*
X390040Y311496D01*
X390017Y311365D01*
X389990Y311236D01*
X389959Y311107D01*
X389924Y310979D01*
X389886Y310852D01*
X389844Y310726D01*
X389798Y310602D01*
X389749Y310479D01*
X389696Y310357D01*
X389639Y310237D01*
X389579Y310119D01*
X389516Y310002D01*
X389449Y309888D01*
X389379Y309775D01*
X389305Y309665D01*
X389229Y309557D01*
X389149Y309451D01*
X389066Y309347D01*
X388980Y309246D01*
X388891Y309148D01*
X388800Y309052D01*
X388705Y308959D01*
X388608Y308869D01*
X388508Y308782D01*
X388406Y308697D01*
X388301Y308616D01*
X388194Y308538D01*
X388085Y308462D01*
X387974Y308391D01*
X387860Y308322D01*
X387745Y308257D01*
X387627Y308195D01*
X387508Y308137D01*
X387387Y308082D01*
X387265Y308031D01*
X387141Y307983D01*
X387016Y307939D01*
X386890Y307899D01*
X386762Y307863D01*
X386634Y307830D01*
X386505Y307801D01*
X386374Y307776D01*
X386244Y307755D01*
X386112Y307737D01*
X385980Y307724D01*
X385848Y307714D01*
X385716Y307708D01*
X385583Y307706D01*
X385583Y307707D02*
X381067Y307707D01*
X386486Y307707D02*
X390098Y300482D01*
X405638Y312674D02*
X405636Y312799D01*
X405630Y312924D01*
X405621Y313049D01*
X405607Y313173D01*
X405590Y313297D01*
X405569Y313421D01*
X405544Y313543D01*
X405515Y313665D01*
X405483Y313786D01*
X405447Y313906D01*
X405407Y314025D01*
X405364Y314142D01*
X405317Y314258D01*
X405266Y314373D01*
X405212Y314485D01*
X405154Y314597D01*
X405094Y314706D01*
X405029Y314813D01*
X404962Y314919D01*
X404891Y315022D01*
X404817Y315123D01*
X404740Y315222D01*
X404660Y315318D01*
X404577Y315412D01*
X404492Y315503D01*
X404403Y315592D01*
X404312Y315677D01*
X404218Y315760D01*
X404122Y315840D01*
X404023Y315917D01*
X403922Y315991D01*
X403819Y316062D01*
X403713Y316129D01*
X403606Y316194D01*
X403497Y316254D01*
X403385Y316312D01*
X403273Y316366D01*
X403158Y316417D01*
X403042Y316464D01*
X402925Y316507D01*
X402806Y316547D01*
X402686Y316583D01*
X402565Y316615D01*
X402443Y316644D01*
X402321Y316669D01*
X402197Y316690D01*
X402073Y316707D01*
X401949Y316721D01*
X401824Y316730D01*
X401699Y316736D01*
X401574Y316738D01*
X401431Y316736D01*
X401289Y316730D01*
X401146Y316720D01*
X401004Y316707D01*
X400863Y316689D01*
X400721Y316668D01*
X400581Y316643D01*
X400441Y316614D01*
X400302Y316581D01*
X400164Y316544D01*
X400027Y316504D01*
X399892Y316460D01*
X399757Y316412D01*
X399624Y316360D01*
X399492Y316305D01*
X399362Y316246D01*
X399234Y316184D01*
X399107Y316118D01*
X398982Y316049D01*
X398859Y315977D01*
X398739Y315901D01*
X398620Y315822D01*
X398503Y315739D01*
X398389Y315654D01*
X398277Y315565D01*
X398168Y315474D01*
X398061Y315379D01*
X397956Y315282D01*
X397855Y315181D01*
X397756Y315078D01*
X397660Y314973D01*
X397567Y314864D01*
X397477Y314753D01*
X397390Y314640D01*
X397306Y314525D01*
X397226Y314407D01*
X397148Y314287D01*
X397074Y314165D01*
X397004Y314041D01*
X396936Y313915D01*
X396873Y313787D01*
X396812Y313658D01*
X396755Y313527D01*
X396702Y313395D01*
X396653Y313261D01*
X396607Y313126D01*
X404283Y309513D02*
X404377Y309605D01*
X404467Y309699D01*
X404555Y309796D01*
X404640Y309896D01*
X404722Y309998D01*
X404801Y310103D01*
X404876Y310210D01*
X404948Y310319D01*
X405017Y310430D01*
X405083Y310544D01*
X405145Y310659D01*
X405204Y310776D01*
X405259Y310895D01*
X405310Y311015D01*
X405358Y311137D01*
X405403Y311260D01*
X405443Y311384D01*
X405480Y311510D01*
X405513Y311637D01*
X405542Y311764D01*
X405568Y311893D01*
X405589Y312022D01*
X405607Y312152D01*
X405620Y312282D01*
X405630Y312412D01*
X405636Y312543D01*
X405638Y312674D01*
X404283Y309513D02*
X396607Y300482D01*
X405638Y300482D01*
X251968Y224852D02*
X235712Y224852D01*
X235712Y220337D02*
X235712Y229368D01*
X235712Y235658D02*
X251968Y235658D01*
X235712Y235658D02*
X235712Y240173D01*
X235714Y240306D01*
X235720Y240438D01*
X235730Y240570D01*
X235743Y240702D01*
X235761Y240834D01*
X235782Y240964D01*
X235807Y241095D01*
X235836Y241224D01*
X235869Y241352D01*
X235905Y241480D01*
X235945Y241606D01*
X235989Y241731D01*
X236037Y241855D01*
X236088Y241977D01*
X236143Y242098D01*
X236201Y242217D01*
X236263Y242335D01*
X236328Y242450D01*
X236397Y242564D01*
X236468Y242675D01*
X236544Y242784D01*
X236622Y242891D01*
X236703Y242996D01*
X236788Y243098D01*
X236875Y243198D01*
X236965Y243295D01*
X237058Y243390D01*
X237154Y243481D01*
X237252Y243570D01*
X237353Y243656D01*
X237457Y243739D01*
X237563Y243819D01*
X237671Y243895D01*
X237781Y243969D01*
X237894Y244039D01*
X238008Y244106D01*
X238125Y244169D01*
X238243Y244229D01*
X238363Y244286D01*
X238485Y244339D01*
X238608Y244388D01*
X238732Y244434D01*
X238858Y244476D01*
X238985Y244514D01*
X239113Y244549D01*
X239242Y244580D01*
X239371Y244607D01*
X239502Y244630D01*
X239633Y244650D01*
X239765Y244665D01*
X239897Y244677D01*
X240029Y244685D01*
X240162Y244689D01*
X240294Y244689D01*
X240427Y244685D01*
X240559Y244677D01*
X240691Y244665D01*
X240823Y244650D01*
X240954Y244630D01*
X241085Y244607D01*
X241214Y244580D01*
X241343Y244549D01*
X241471Y244514D01*
X241598Y244476D01*
X241724Y244434D01*
X241848Y244388D01*
X241971Y244339D01*
X242093Y244286D01*
X242213Y244229D01*
X242331Y244169D01*
X242448Y244106D01*
X242562Y244039D01*
X242675Y243969D01*
X242785Y243895D01*
X242893Y243819D01*
X242999Y243739D01*
X243103Y243656D01*
X243204Y243570D01*
X243302Y243481D01*
X243398Y243390D01*
X243491Y243295D01*
X243581Y243198D01*
X243668Y243098D01*
X243753Y242996D01*
X243834Y242891D01*
X243912Y242784D01*
X243988Y242675D01*
X244059Y242564D01*
X244128Y242450D01*
X244193Y242335D01*
X244255Y242217D01*
X244313Y242098D01*
X244368Y241977D01*
X244419Y241855D01*
X244467Y241731D01*
X244511Y241606D01*
X244551Y241480D01*
X244587Y241352D01*
X244620Y241224D01*
X244649Y241095D01*
X244674Y240964D01*
X244695Y240834D01*
X244713Y240702D01*
X244726Y240570D01*
X244736Y240438D01*
X244742Y240306D01*
X244744Y240173D01*
X244743Y240173D02*
X244743Y235658D01*
X248356Y250557D02*
X235712Y254169D01*
X248356Y250557D02*
X248356Y259588D01*
X244743Y256879D02*
X251968Y256879D01*
D11*
X495681Y344114D02*
X503809Y341405D01*
X503809Y346823D02*
X495681Y344114D01*
X501777Y346146D02*
X501777Y342082D01*
X500648Y354206D02*
X498390Y359625D01*
X502906Y359625D02*
X500648Y354206D01*
X503809Y367742D02*
X495681Y367742D01*
X503809Y367742D02*
X503809Y371355D01*
X503809Y374676D02*
X503809Y378289D01*
X503809Y374676D02*
X495681Y374676D01*
X495681Y378289D01*
X499293Y377386D02*
X499293Y374676D01*
X495681Y381594D02*
X503809Y381594D01*
X495681Y381594D02*
X495681Y383852D01*
X495683Y383945D01*
X495689Y384038D01*
X495698Y384131D01*
X495712Y384224D01*
X495729Y384315D01*
X495750Y384406D01*
X495775Y384496D01*
X495803Y384585D01*
X495835Y384673D01*
X495871Y384759D01*
X495910Y384844D01*
X495953Y384927D01*
X495999Y385008D01*
X496049Y385087D01*
X496101Y385164D01*
X496157Y385239D01*
X496216Y385311D01*
X496278Y385381D01*
X496342Y385449D01*
X496410Y385513D01*
X496480Y385575D01*
X496552Y385634D01*
X496627Y385690D01*
X496704Y385742D01*
X496783Y385792D01*
X496864Y385838D01*
X496947Y385881D01*
X497032Y385920D01*
X497118Y385956D01*
X497206Y385988D01*
X497295Y386016D01*
X497385Y386041D01*
X497476Y386062D01*
X497567Y386079D01*
X497660Y386093D01*
X497753Y386102D01*
X497846Y386108D01*
X497939Y386110D01*
X501551Y386110D01*
X501644Y386108D01*
X501737Y386102D01*
X501830Y386093D01*
X501923Y386079D01*
X502014Y386062D01*
X502105Y386041D01*
X502195Y386016D01*
X502284Y385988D01*
X502372Y385956D01*
X502458Y385920D01*
X502543Y385881D01*
X502626Y385838D01*
X502707Y385792D01*
X502786Y385742D01*
X502863Y385690D01*
X502938Y385634D01*
X503010Y385575D01*
X503080Y385513D01*
X503148Y385449D01*
X503212Y385381D01*
X503274Y385311D01*
X503333Y385239D01*
X503389Y385164D01*
X503441Y385087D01*
X503491Y385008D01*
X503537Y384927D01*
X503580Y384844D01*
X503619Y384759D01*
X503655Y384673D01*
X503687Y384585D01*
X503715Y384496D01*
X503740Y384406D01*
X503761Y384315D01*
X503778Y384224D01*
X503792Y384131D01*
X503801Y384038D01*
X503807Y383945D01*
X503809Y383852D01*
X503809Y381594D01*
X498390Y394211D02*
X500648Y399630D01*
X502906Y394211D01*
X503809Y407853D02*
X495681Y407853D01*
X495681Y412369D02*
X500648Y407853D01*
X498842Y409660D02*
X503809Y412369D01*
D12*
X419735Y540385D02*
X419735Y554355D01*
X423616Y554355D01*
X423739Y554353D01*
X423862Y554347D01*
X423985Y554337D01*
X424107Y554324D01*
X424229Y554306D01*
X424350Y554285D01*
X424471Y554260D01*
X424591Y554231D01*
X424709Y554198D01*
X424827Y554161D01*
X424943Y554121D01*
X425058Y554077D01*
X425172Y554029D01*
X425284Y553978D01*
X425394Y553924D01*
X425503Y553865D01*
X425610Y553804D01*
X425714Y553739D01*
X425817Y553671D01*
X425917Y553599D01*
X426015Y553525D01*
X426111Y553447D01*
X426204Y553366D01*
X426294Y553283D01*
X426382Y553196D01*
X426467Y553107D01*
X426549Y553016D01*
X426628Y552921D01*
X426704Y552824D01*
X426777Y552725D01*
X426847Y552624D01*
X426914Y552520D01*
X426977Y552415D01*
X427037Y552307D01*
X427093Y552197D01*
X427146Y552086D01*
X427196Y551973D01*
X427241Y551859D01*
X427284Y551743D01*
X427322Y551626D01*
X427357Y551508D01*
X427388Y551389D01*
X427415Y551269D01*
X427438Y551148D01*
X427457Y551026D01*
X427473Y550904D01*
X427485Y550782D01*
X427493Y550659D01*
X427497Y550536D01*
X427497Y550412D01*
X427493Y550289D01*
X427485Y550166D01*
X427473Y550044D01*
X427457Y549922D01*
X427438Y549800D01*
X427415Y549679D01*
X427388Y549559D01*
X427357Y549440D01*
X427322Y549322D01*
X427284Y549205D01*
X427241Y549089D01*
X427196Y548975D01*
X427146Y548862D01*
X427093Y548751D01*
X427037Y548641D01*
X426977Y548534D01*
X426914Y548428D01*
X426847Y548324D01*
X426777Y548223D01*
X426704Y548124D01*
X426628Y548027D01*
X426549Y547932D01*
X426467Y547841D01*
X426382Y547752D01*
X426294Y547665D01*
X426204Y547582D01*
X426111Y547501D01*
X426015Y547423D01*
X425917Y547349D01*
X425817Y547277D01*
X425714Y547209D01*
X425610Y547144D01*
X425503Y547083D01*
X425394Y547024D01*
X425284Y546970D01*
X425172Y546919D01*
X425058Y546871D01*
X424943Y546827D01*
X424827Y546787D01*
X424709Y546750D01*
X424591Y546717D01*
X424471Y546688D01*
X424350Y546663D01*
X424229Y546642D01*
X424107Y546624D01*
X423985Y546611D01*
X423862Y546601D01*
X423739Y546595D01*
X423616Y546593D01*
X423616Y546594D02*
X419735Y546594D01*
X424392Y546594D02*
X427496Y540385D01*
X433334Y540385D02*
X437215Y540385D01*
X437338Y540387D01*
X437461Y540393D01*
X437584Y540403D01*
X437706Y540416D01*
X437828Y540434D01*
X437949Y540455D01*
X438070Y540480D01*
X438190Y540509D01*
X438308Y540542D01*
X438426Y540579D01*
X438542Y540619D01*
X438657Y540663D01*
X438771Y540711D01*
X438883Y540762D01*
X438993Y540816D01*
X439102Y540875D01*
X439209Y540936D01*
X439313Y541001D01*
X439416Y541069D01*
X439516Y541141D01*
X439614Y541215D01*
X439710Y541293D01*
X439803Y541374D01*
X439893Y541457D01*
X439981Y541544D01*
X440066Y541633D01*
X440148Y541724D01*
X440227Y541819D01*
X440303Y541916D01*
X440376Y542015D01*
X440446Y542116D01*
X440513Y542220D01*
X440576Y542326D01*
X440636Y542433D01*
X440692Y542543D01*
X440745Y542654D01*
X440795Y542767D01*
X440840Y542881D01*
X440883Y542997D01*
X440921Y543114D01*
X440956Y543232D01*
X440987Y543351D01*
X441014Y543471D01*
X441037Y543592D01*
X441056Y543714D01*
X441072Y543836D01*
X441084Y543958D01*
X441092Y544081D01*
X441096Y544204D01*
X441096Y544328D01*
X441092Y544451D01*
X441084Y544574D01*
X441072Y544696D01*
X441056Y544818D01*
X441037Y544940D01*
X441014Y545061D01*
X440987Y545181D01*
X440956Y545300D01*
X440921Y545418D01*
X440883Y545535D01*
X440840Y545651D01*
X440795Y545765D01*
X440745Y545878D01*
X440692Y545989D01*
X440636Y546099D01*
X440576Y546207D01*
X440513Y546312D01*
X440446Y546416D01*
X440376Y546517D01*
X440303Y546616D01*
X440227Y546713D01*
X440148Y546808D01*
X440066Y546899D01*
X439981Y546988D01*
X439893Y547075D01*
X439803Y547158D01*
X439710Y547239D01*
X439614Y547317D01*
X439516Y547391D01*
X439416Y547463D01*
X439313Y547531D01*
X439209Y547596D01*
X439102Y547657D01*
X438993Y547716D01*
X438883Y547770D01*
X438771Y547821D01*
X438657Y547869D01*
X438542Y547913D01*
X438426Y547953D01*
X438308Y547990D01*
X438190Y548023D01*
X438070Y548052D01*
X437949Y548077D01*
X437828Y548098D01*
X437706Y548116D01*
X437584Y548129D01*
X437461Y548139D01*
X437338Y548145D01*
X437215Y548147D01*
X437991Y554355D02*
X433334Y554355D01*
X437991Y554355D02*
X438102Y554353D01*
X438212Y554347D01*
X438323Y554337D01*
X438433Y554323D01*
X438542Y554306D01*
X438651Y554284D01*
X438759Y554259D01*
X438865Y554229D01*
X438971Y554196D01*
X439076Y554159D01*
X439179Y554119D01*
X439280Y554074D01*
X439380Y554027D01*
X439479Y553975D01*
X439575Y553920D01*
X439669Y553862D01*
X439761Y553801D01*
X439851Y553736D01*
X439939Y553668D01*
X440024Y553597D01*
X440106Y553523D01*
X440186Y553446D01*
X440263Y553366D01*
X440337Y553284D01*
X440408Y553199D01*
X440476Y553111D01*
X440541Y553021D01*
X440602Y552929D01*
X440660Y552835D01*
X440715Y552739D01*
X440767Y552640D01*
X440814Y552540D01*
X440859Y552439D01*
X440899Y552336D01*
X440936Y552231D01*
X440969Y552125D01*
X440999Y552019D01*
X441024Y551911D01*
X441046Y551802D01*
X441063Y551693D01*
X441077Y551583D01*
X441087Y551472D01*
X441093Y551362D01*
X441095Y551251D01*
X441093Y551140D01*
X441087Y551030D01*
X441077Y550919D01*
X441063Y550809D01*
X441046Y550700D01*
X441024Y550591D01*
X440999Y550483D01*
X440969Y550377D01*
X440936Y550271D01*
X440899Y550166D01*
X440859Y550063D01*
X440814Y549962D01*
X440767Y549862D01*
X440715Y549763D01*
X440660Y549667D01*
X440602Y549573D01*
X440541Y549481D01*
X440476Y549391D01*
X440408Y549303D01*
X440337Y549218D01*
X440263Y549136D01*
X440186Y549056D01*
X440106Y548979D01*
X440024Y548905D01*
X439939Y548834D01*
X439851Y548766D01*
X439761Y548701D01*
X439669Y548640D01*
X439575Y548582D01*
X439479Y548527D01*
X439380Y548475D01*
X439280Y548428D01*
X439179Y548383D01*
X439076Y548343D01*
X438971Y548306D01*
X438865Y548273D01*
X438759Y548243D01*
X438651Y548218D01*
X438542Y548196D01*
X438433Y548179D01*
X438323Y548165D01*
X438212Y548155D01*
X438102Y548149D01*
X437991Y548147D01*
X437991Y548146D02*
X434887Y548146D01*
X525145Y537916D02*
X539115Y537916D01*
X525145Y541796D02*
X525145Y534035D01*
X525145Y547472D02*
X539115Y547472D01*
X525145Y547472D02*
X525145Y551353D01*
X525147Y551476D01*
X525153Y551599D01*
X525163Y551722D01*
X525176Y551844D01*
X525194Y551966D01*
X525215Y552087D01*
X525240Y552208D01*
X525269Y552328D01*
X525302Y552446D01*
X525339Y552564D01*
X525379Y552680D01*
X525423Y552795D01*
X525471Y552909D01*
X525522Y553021D01*
X525576Y553131D01*
X525635Y553240D01*
X525696Y553347D01*
X525761Y553451D01*
X525829Y553554D01*
X525901Y553654D01*
X525975Y553752D01*
X526053Y553848D01*
X526134Y553941D01*
X526217Y554031D01*
X526304Y554119D01*
X526393Y554204D01*
X526484Y554286D01*
X526579Y554365D01*
X526676Y554441D01*
X526775Y554514D01*
X526876Y554584D01*
X526980Y554651D01*
X527086Y554714D01*
X527193Y554774D01*
X527303Y554830D01*
X527414Y554883D01*
X527527Y554933D01*
X527641Y554978D01*
X527757Y555021D01*
X527874Y555059D01*
X527992Y555094D01*
X528111Y555125D01*
X528231Y555152D01*
X528352Y555175D01*
X528474Y555194D01*
X528596Y555210D01*
X528718Y555222D01*
X528841Y555230D01*
X528964Y555234D01*
X529088Y555234D01*
X529211Y555230D01*
X529334Y555222D01*
X529456Y555210D01*
X529578Y555194D01*
X529700Y555175D01*
X529821Y555152D01*
X529941Y555125D01*
X530060Y555094D01*
X530178Y555059D01*
X530295Y555021D01*
X530411Y554978D01*
X530525Y554933D01*
X530638Y554883D01*
X530749Y554830D01*
X530859Y554774D01*
X530967Y554714D01*
X531072Y554651D01*
X531176Y554584D01*
X531277Y554514D01*
X531376Y554441D01*
X531473Y554365D01*
X531568Y554286D01*
X531659Y554204D01*
X531748Y554119D01*
X531835Y554031D01*
X531918Y553941D01*
X531999Y553848D01*
X532077Y553752D01*
X532151Y553654D01*
X532223Y553554D01*
X532291Y553451D01*
X532356Y553347D01*
X532417Y553240D01*
X532476Y553131D01*
X532530Y553021D01*
X532581Y552909D01*
X532629Y552795D01*
X532673Y552680D01*
X532713Y552564D01*
X532750Y552446D01*
X532783Y552328D01*
X532812Y552208D01*
X532837Y552087D01*
X532858Y551966D01*
X532876Y551844D01*
X532889Y551722D01*
X532899Y551599D01*
X532905Y551476D01*
X532907Y551353D01*
X532906Y551353D02*
X532906Y547472D01*
X525145Y564768D02*
X525147Y564885D01*
X525153Y565001D01*
X525163Y565118D01*
X525176Y565234D01*
X525194Y565349D01*
X525215Y565464D01*
X525240Y565578D01*
X525269Y565691D01*
X525302Y565803D01*
X525338Y565914D01*
X525378Y566023D01*
X525422Y566132D01*
X525470Y566238D01*
X525520Y566343D01*
X525575Y566447D01*
X525633Y566548D01*
X525694Y566648D01*
X525758Y566745D01*
X525826Y566840D01*
X525897Y566933D01*
X525971Y567023D01*
X526047Y567111D01*
X526127Y567196D01*
X526210Y567279D01*
X526295Y567359D01*
X526383Y567435D01*
X526473Y567509D01*
X526566Y567580D01*
X526661Y567648D01*
X526758Y567712D01*
X526858Y567773D01*
X526959Y567831D01*
X527063Y567886D01*
X527168Y567936D01*
X527274Y567984D01*
X527383Y568028D01*
X527492Y568068D01*
X527603Y568104D01*
X527715Y568137D01*
X527828Y568166D01*
X527942Y568191D01*
X528057Y568212D01*
X528172Y568230D01*
X528288Y568243D01*
X528405Y568253D01*
X528521Y568259D01*
X528638Y568261D01*
X525145Y564768D02*
X525147Y564637D01*
X525153Y564506D01*
X525162Y564375D01*
X525176Y564244D01*
X525193Y564114D01*
X525214Y563985D01*
X525239Y563856D01*
X525267Y563728D01*
X525300Y563601D01*
X525336Y563474D01*
X525375Y563349D01*
X525419Y563225D01*
X525465Y563103D01*
X525516Y562982D01*
X525570Y562862D01*
X525627Y562744D01*
X525688Y562628D01*
X525753Y562513D01*
X525820Y562401D01*
X525891Y562291D01*
X525965Y562182D01*
X526042Y562076D01*
X526122Y561972D01*
X526206Y561871D01*
X526292Y561772D01*
X526381Y561675D01*
X526473Y561582D01*
X526567Y561491D01*
X526664Y561402D01*
X526764Y561317D01*
X526866Y561235D01*
X526971Y561155D01*
X527078Y561079D01*
X527186Y561006D01*
X527298Y560936D01*
X527411Y560869D01*
X527526Y560806D01*
X527642Y560746D01*
X527761Y560690D01*
X527881Y560637D01*
X528002Y560587D01*
X528125Y560542D01*
X528250Y560499D01*
X531354Y567096D02*
X531269Y567183D01*
X531181Y567266D01*
X531090Y567347D01*
X530997Y567425D01*
X530902Y567500D01*
X530803Y567572D01*
X530703Y567640D01*
X530601Y567706D01*
X530496Y567767D01*
X530390Y567826D01*
X530281Y567881D01*
X530171Y567932D01*
X530060Y567980D01*
X529946Y568024D01*
X529832Y568065D01*
X529716Y568102D01*
X529599Y568135D01*
X529481Y568164D01*
X529362Y568189D01*
X529243Y568211D01*
X529123Y568229D01*
X529002Y568242D01*
X528881Y568252D01*
X528759Y568258D01*
X528638Y568260D01*
X531354Y567096D02*
X539115Y560499D01*
X539115Y568261D01*
X405765Y429966D02*
X391795Y429966D01*
X391795Y433846D02*
X391795Y426085D01*
X394899Y438861D02*
X391795Y442741D01*
X405765Y442741D01*
X405765Y438861D02*
X405765Y446622D01*
D13*
X35000Y35000D03*
X797000Y543000D03*
D14*
X202830Y457250D03*
D15*
X189330Y457250D03*
D16*
X189330Y469250D03*
D17*
X202830Y469250D03*
D18*
X396850Y342900D03*
X377850Y342900D03*
D19*
X432850Y511650D03*
X432850Y491650D03*
D20*
X465350Y501650D03*
D21*
X41990Y283510D03*
X41990Y277010D03*
X41990Y270510D03*
X41990Y264010D03*
X41990Y257510D03*
D22*
X15240Y310010D03*
X15240Y282510D03*
X15240Y258510D03*
X15240Y231010D03*
D23*
X100330Y443200D03*
X100330Y471200D03*
D24*
X457200Y455500D03*
X466700Y433500D03*
X447700Y433500D03*
D19*
X457200Y404200D03*
X457200Y383200D03*
D25*
X292100Y238150D03*
X292100Y257150D03*
X274320Y363830D03*
X274320Y344830D03*
D18*
X282600Y515620D03*
X301600Y515620D03*
D25*
X539750Y492150D03*
X539750Y511150D03*
D26*
X274320Y454910D03*
X274320Y426470D03*
D27*
X274320Y457250D02*
X202830Y457250D01*
X274320Y457250D02*
X274320Y454910D01*
X432850Y448350D02*
X447700Y433500D01*
X432850Y448350D02*
X432850Y491650D01*
X13970Y281240D02*
X13970Y271820D01*
X13970Y281240D02*
X16510Y281240D01*
X16510Y259780D01*
X13970Y259780D01*
X13970Y271820D01*
X293370Y246840D02*
X293370Y239420D01*
X290830Y239420D01*
X290830Y255880D01*
X293370Y255880D01*
X293370Y246840D01*
X575282Y527185D02*
X579490Y527185D01*
X575282Y527185D02*
X571274Y524871D01*
X571274Y524871D01*
X571274Y524871D01*
X568960Y520864D01*
X568960Y516466D01*
X570656Y512661D01*
X570656Y512661D01*
X572847Y510690D01*
X571395Y509851D01*
X571395Y509851D01*
X568960Y505634D01*
X568960Y496789D01*
X570211Y495538D01*
X568960Y494287D01*
X568960Y481468D01*
X571638Y478790D01*
X575426Y478790D01*
X578104Y481468D01*
X578104Y483306D01*
X590550Y483306D01*
X590550Y139700D01*
X0Y139700D01*
X0Y520700D01*
X76200Y520700D01*
X76200Y577850D01*
X590550Y577850D01*
X590550Y527185D01*
X587894Y527185D01*
X585216Y524507D01*
X585216Y523469D01*
X583902Y524586D01*
X582803Y525740D01*
X582802Y525740D01*
X582281Y525964D01*
X582275Y525969D01*
X582270Y525969D01*
X579534Y527141D01*
X579490Y527185D01*
X290830Y258420D02*
X280790Y258420D01*
X290830Y258420D02*
X290830Y255880D01*
X280790Y255880D01*
X280790Y250148D01*
X281050Y249179D01*
X281551Y248311D01*
X282212Y247650D01*
X281551Y246989D01*
X281050Y246121D01*
X280790Y245152D01*
X280790Y239420D01*
X290830Y239420D01*
X290830Y236880D01*
X280790Y236880D01*
X280790Y231148D01*
X281050Y230179D01*
X281551Y229311D01*
X282261Y228601D01*
X283129Y228100D01*
X284098Y227840D01*
X290830Y227840D01*
X290830Y236880D01*
X293370Y236880D01*
X293370Y227840D01*
X300102Y227840D01*
X301071Y228100D01*
X301939Y228601D01*
X302649Y229311D01*
X303150Y230179D01*
X303410Y231148D01*
X303410Y236880D01*
X293370Y236880D01*
X293370Y239420D01*
X303410Y239420D01*
X303410Y245152D01*
X303150Y246121D01*
X302649Y246989D01*
X301988Y247650D01*
X302649Y248311D01*
X303150Y249179D01*
X303410Y250148D01*
X303410Y255880D01*
X293370Y255880D01*
X293370Y258420D01*
X303410Y258420D01*
X303410Y264152D01*
X303150Y265121D01*
X302649Y265989D01*
X301939Y266699D01*
X301071Y267200D01*
X300102Y267460D01*
X293370Y267460D01*
X293370Y258420D01*
X290830Y258420D01*
X290830Y267460D01*
X284098Y267460D01*
X283129Y267200D01*
X282261Y266699D01*
X281551Y265989D01*
X281050Y265121D01*
X280790Y264152D01*
X280790Y258420D01*
X448930Y434730D02*
X448930Y444310D01*
X448930Y434730D02*
X446470Y434730D01*
X446470Y444310D01*
X442198Y444310D01*
X441229Y444050D01*
X440361Y443549D01*
X439651Y442839D01*
X439150Y441971D01*
X438890Y441002D01*
X438890Y434730D01*
X446470Y434730D01*
X446470Y432270D01*
X438890Y432270D01*
X438890Y425998D01*
X439150Y425029D01*
X439651Y424161D01*
X440361Y423451D01*
X441229Y422950D01*
X442198Y422690D01*
X446470Y422690D01*
X446470Y432270D01*
X448930Y432270D01*
X448930Y422690D01*
X452120Y422690D01*
X452120Y414010D01*
X449622Y414010D01*
X447390Y411778D01*
X447390Y396622D01*
X449622Y394390D01*
X464778Y394390D01*
X467010Y396622D01*
X467010Y411778D01*
X464778Y414010D01*
X462280Y414010D01*
X462280Y422690D01*
X473278Y422690D01*
X475510Y424922D01*
X475510Y428420D01*
X483204Y428420D01*
X536624Y481840D01*
X548828Y481840D01*
X551060Y484072D01*
X551060Y500228D01*
X549638Y501650D01*
X551060Y503072D01*
X551060Y519228D01*
X548828Y521460D01*
X530672Y521460D01*
X528440Y519228D01*
X528440Y503072D01*
X529862Y501650D01*
X528440Y500228D01*
X528440Y488024D01*
X478996Y438580D01*
X475510Y438580D01*
X475510Y442078D01*
X473278Y444310D01*
X471780Y444310D01*
X471780Y489840D01*
X474428Y489840D01*
X476660Y492072D01*
X476660Y511228D01*
X474428Y513460D01*
X456272Y513460D01*
X454040Y511228D01*
X454040Y492072D01*
X456272Y489840D01*
X461620Y489840D01*
X461620Y466310D01*
X450622Y466310D01*
X448390Y464078D01*
X448390Y446922D01*
X450622Y444690D01*
X452120Y444690D01*
X452120Y444310D01*
X448930Y444310D01*
X28550Y229740D02*
X16510Y229740D01*
X16510Y232280D01*
X28550Y232280D01*
X28550Y241012D01*
X28290Y241981D01*
X27789Y242849D01*
X27079Y243559D01*
X26211Y244060D01*
X25242Y244320D01*
X16510Y244320D01*
X16510Y232280D01*
X13970Y232280D01*
X13970Y244320D01*
X5238Y244320D01*
X4269Y244060D01*
X3401Y243559D01*
X2691Y242849D01*
X2190Y241981D01*
X1930Y241012D01*
X1930Y232280D01*
X13970Y232280D01*
X13970Y229740D01*
X1930Y229740D01*
X1930Y221008D01*
X2190Y220039D01*
X2691Y219171D01*
X3401Y218461D01*
X4269Y217960D01*
X5238Y217700D01*
X13970Y217700D01*
X13970Y229740D01*
X16510Y229740D01*
X16510Y217700D01*
X25242Y217700D01*
X26211Y217960D01*
X27079Y218461D01*
X27789Y219171D01*
X28290Y220039D01*
X28550Y221008D01*
X28550Y229740D01*
X434120Y492920D02*
X434120Y501460D01*
X434120Y492920D02*
X431580Y492920D01*
X431580Y501460D01*
X426348Y501460D01*
X425379Y501200D01*
X424511Y500699D01*
X423801Y499989D01*
X423300Y499121D01*
X423040Y498152D01*
X423040Y492920D01*
X431580Y492920D01*
X431580Y490380D01*
X423040Y490380D01*
X423040Y485148D01*
X423300Y484179D01*
X423801Y483311D01*
X424511Y482601D01*
X425379Y482100D01*
X426348Y481840D01*
X431580Y481840D01*
X431580Y490380D01*
X434120Y490380D01*
X434120Y481840D01*
X439352Y481840D01*
X440321Y482100D01*
X441189Y482601D01*
X441899Y483311D01*
X442400Y484179D01*
X442660Y485148D01*
X442660Y490380D01*
X434120Y490380D01*
X434120Y492920D01*
X442660Y492920D01*
X442660Y498152D01*
X442400Y499121D01*
X441899Y499989D01*
X441189Y500699D01*
X440321Y501200D01*
X439352Y501460D01*
X434120Y501460D01*
X442660Y504072D02*
X442660Y519228D01*
X440428Y521460D01*
X425272Y521460D01*
X424512Y520700D01*
X311910Y520700D01*
X311910Y524698D01*
X309678Y526930D01*
X293522Y526930D01*
X292100Y525508D01*
X290678Y526930D01*
X274522Y526930D01*
X272290Y524698D01*
X272290Y520700D01*
X200726Y520700D01*
X197750Y517724D01*
X197750Y477910D01*
X182002Y477910D01*
X180372Y476280D01*
X113140Y476280D01*
X113140Y480778D01*
X110908Y483010D01*
X89752Y483010D01*
X87520Y480778D01*
X87520Y476280D01*
X39886Y476280D01*
X36910Y473304D01*
X36910Y294530D01*
X35075Y294530D01*
X32720Y292175D01*
X32720Y288845D01*
X33010Y288555D01*
X31449Y286993D01*
X31449Y260527D01*
X31578Y260398D01*
X31449Y259917D01*
X31449Y257510D01*
X41990Y257510D01*
X41990Y257510D01*
X31449Y257510D01*
X31449Y255103D01*
X31709Y254134D01*
X32210Y253266D01*
X32920Y252556D01*
X33035Y252490D01*
X32720Y252175D01*
X32720Y248845D01*
X35075Y246490D01*
X38405Y246490D01*
X40760Y248845D01*
X40760Y251795D01*
X41990Y251795D01*
X41990Y257510D01*
X41990Y257510D01*
X41990Y251795D01*
X49223Y251795D01*
X50192Y252055D01*
X51060Y252556D01*
X51770Y253266D01*
X52271Y254134D01*
X52531Y255103D01*
X52531Y257510D01*
X41990Y257510D01*
X41990Y257510D01*
X52531Y257510D01*
X52531Y259917D01*
X52402Y260398D01*
X52531Y260527D01*
X52531Y286993D01*
X50299Y289225D01*
X47070Y289225D01*
X47070Y466120D01*
X87520Y466120D01*
X87520Y461622D01*
X89752Y459390D01*
X110908Y459390D01*
X113140Y461622D01*
X113140Y466120D01*
X174690Y466120D01*
X174690Y424366D01*
X177666Y421390D01*
X261495Y421390D01*
X261495Y416892D01*
X263727Y414660D01*
X269240Y414660D01*
X269240Y374140D01*
X265242Y374140D01*
X263010Y371908D01*
X263010Y355752D01*
X264432Y354330D01*
X263010Y352908D01*
X263010Y336752D01*
X265242Y334520D01*
X283398Y334520D01*
X285630Y336752D01*
X285630Y337820D01*
X367540Y337820D01*
X367540Y333822D01*
X369772Y331590D01*
X385928Y331590D01*
X387350Y333012D01*
X388772Y331590D01*
X404928Y331590D01*
X407160Y333822D01*
X407160Y351978D01*
X404928Y354210D01*
X401930Y354210D01*
X401930Y378120D01*
X447390Y378120D01*
X447390Y375622D01*
X449622Y373390D01*
X464778Y373390D01*
X467010Y375622D01*
X467010Y390778D01*
X464778Y393010D01*
X449622Y393010D01*
X447390Y390778D01*
X447390Y388280D01*
X394746Y388280D01*
X391770Y385304D01*
X391770Y354210D01*
X388772Y354210D01*
X387350Y352788D01*
X385928Y354210D01*
X369772Y354210D01*
X367540Y351978D01*
X367540Y347980D01*
X285630Y347980D01*
X285630Y352908D01*
X284208Y354330D01*
X285630Y355752D01*
X285630Y371908D01*
X283398Y374140D01*
X279400Y374140D01*
X279400Y414660D01*
X284913Y414660D01*
X287145Y416892D01*
X287145Y436048D01*
X284913Y438280D01*
X263727Y438280D01*
X261495Y436048D01*
X261495Y431550D01*
X184850Y431550D01*
X184850Y449190D01*
X188475Y449190D01*
X188475Y456395D01*
X190185Y456395D01*
X190185Y449190D01*
X195582Y449190D01*
X196307Y449385D01*
X196502Y449190D01*
X209158Y449190D01*
X211390Y451422D01*
X211390Y452170D01*
X261495Y452170D01*
X261495Y445332D01*
X263727Y443100D01*
X284913Y443100D01*
X287145Y445332D01*
X287145Y464488D01*
X284913Y466720D01*
X263727Y466720D01*
X261495Y464488D01*
X261495Y462330D01*
X211390Y462330D01*
X211390Y475678D01*
X209158Y477910D01*
X207910Y477910D01*
X207910Y510540D01*
X272290Y510540D01*
X272290Y506542D01*
X274522Y504310D01*
X290678Y504310D01*
X292100Y505732D01*
X293522Y504310D01*
X309678Y504310D01*
X311910Y506542D01*
X311910Y510540D01*
X423040Y510540D01*
X423040Y504072D01*
X425272Y501840D01*
X440428Y501840D01*
X442660Y504072D01*
X410210Y428124D02*
X407606Y425521D01*
X410210Y428124D02*
X410210Y431807D01*
X407606Y434411D01*
X396452Y434411D01*
X399114Y436540D01*
X399309Y438296D01*
X401320Y438296D01*
X401320Y437020D01*
X403924Y434416D01*
X407606Y434416D01*
X410210Y437020D01*
X410210Y448463D01*
X407606Y451067D01*
X403924Y451067D01*
X401320Y448463D01*
X401320Y447186D01*
X392041Y447186D01*
X390456Y447363D01*
X390236Y447186D01*
X389954Y447186D01*
X388826Y446059D01*
X387581Y445062D01*
X387549Y444782D01*
X387350Y444583D01*
X387350Y442988D01*
X387174Y441402D01*
X387350Y441182D01*
X387350Y440900D01*
X388478Y439772D01*
X389792Y438129D01*
X387350Y435687D01*
X387350Y424244D01*
X389954Y421640D01*
X393636Y421640D01*
X396240Y424244D01*
X396240Y425521D01*
X407606Y425521D01*
X526511Y572706D02*
X530479Y572706D01*
X526511Y572706D02*
X522827Y570579D01*
X522827Y570579D01*
X522827Y570579D01*
X520700Y566895D01*
X520700Y562868D01*
X522247Y559397D01*
X522247Y559397D01*
X523835Y557969D01*
X522931Y557447D01*
X522931Y557447D01*
X520700Y553583D01*
X520700Y545631D01*
X521697Y544634D01*
X520700Y543637D01*
X520700Y532194D01*
X523304Y529590D01*
X526986Y529590D01*
X529590Y532194D01*
X529590Y533471D01*
X540956Y533471D01*
X543560Y536074D01*
X543560Y539757D01*
X540956Y542361D01*
X529590Y542361D01*
X529590Y543027D01*
X540956Y543027D01*
X543560Y545631D01*
X543560Y549313D01*
X540956Y551917D01*
X537351Y551917D01*
X537351Y553583D01*
X537351Y553583D01*
X535120Y557447D01*
X535120Y557447D01*
X532435Y558998D01*
X532777Y560053D01*
X536099Y557229D01*
X537274Y556054D01*
X537481Y556054D01*
X537639Y555920D01*
X539295Y556054D01*
X540956Y556054D01*
X541103Y556201D01*
X541309Y556218D01*
X542385Y557484D01*
X543560Y558658D01*
X543560Y558866D01*
X543694Y559023D01*
X543560Y560679D01*
X543560Y570102D01*
X540956Y572706D01*
X537274Y572706D01*
X534675Y570107D01*
X534411Y570332D01*
X533412Y571380D01*
X533412Y571380D01*
X532939Y571583D01*
X532830Y571676D01*
X532740Y571668D01*
X530598Y572586D01*
X530479Y572706D01*
X417894Y535940D02*
X415290Y538544D01*
X417894Y535940D02*
X421576Y535940D01*
X423691Y538055D01*
X424344Y536750D01*
X427837Y535586D01*
X430511Y536923D01*
X431493Y535940D01*
X439446Y535940D01*
X443310Y538171D01*
X443310Y538171D01*
X443310Y538171D01*
X445540Y542035D01*
X445540Y546496D01*
X444801Y547778D01*
X445929Y551251D01*
X445929Y551251D01*
X444413Y555916D01*
X444413Y555916D01*
X440444Y558800D01*
X431493Y558800D01*
X429426Y556733D01*
X425846Y558800D01*
X417894Y558800D01*
X415290Y556196D01*
X415290Y552514D01*
X415290Y538544D01*
X492709Y340687D02*
X494073Y340232D01*
X495359Y339589D01*
X495681Y339696D01*
X499513Y338419D01*
X500041Y337891D01*
X501097Y337891D01*
X504131Y336880D01*
X507236Y338432D01*
X508334Y341726D01*
X507140Y344114D01*
X508334Y346502D01*
X507236Y349795D01*
X504131Y351348D01*
X503983Y351299D01*
X504520Y352602D01*
X507442Y359615D01*
X506120Y362826D01*
X504379Y363551D01*
X505545Y363551D01*
X508000Y366006D01*
X508000Y382116D01*
X508000Y382116D01*
X508000Y385580D01*
X508000Y385580D01*
X508000Y385588D01*
X507989Y385599D01*
X506272Y388573D01*
X506272Y388573D01*
X506272Y388573D01*
X503757Y390025D01*
X506120Y391010D01*
X507442Y394220D01*
X504520Y401234D01*
X503862Y402830D01*
X503853Y402834D01*
X503849Y402844D01*
X502252Y403502D01*
X501866Y403662D01*
X505545Y403662D01*
X508000Y406117D01*
X508000Y409589D01*
X507505Y410084D01*
X508320Y412852D01*
X506657Y415900D01*
X503326Y416880D01*
X499341Y414706D01*
X497216Y416638D01*
X493748Y416473D01*
X491412Y413904D01*
X491577Y410436D01*
X491975Y410074D01*
X491490Y409589D01*
X491490Y406117D01*
X493945Y403662D01*
X499028Y403662D01*
X499113Y403585D01*
X499261Y403592D01*
X499044Y403502D01*
X497447Y402844D01*
X497443Y402834D01*
X497434Y402830D01*
X496776Y401234D01*
X493854Y394220D01*
X495176Y391010D01*
X496878Y390301D01*
X496203Y390301D01*
X496192Y390290D01*
X493218Y388573D01*
X493218Y388573D01*
X493218Y388573D01*
X491501Y385599D01*
X491490Y385588D01*
X491490Y372940D01*
X493221Y371209D01*
X491490Y369478D01*
X491490Y366006D01*
X493945Y363551D01*
X496918Y363551D01*
X495176Y362826D01*
X493854Y359615D01*
X496776Y352602D01*
X497434Y351005D01*
X497443Y351001D01*
X497447Y350992D01*
X499044Y350334D01*
X499746Y350042D01*
X499513Y349809D01*
X495681Y348531D01*
X495359Y348639D01*
X494073Y347996D01*
X492709Y347541D01*
X492557Y347238D01*
X492254Y347086D01*
X491799Y345722D01*
X491156Y344435D01*
X491263Y344114D01*
X491156Y343792D01*
X491799Y342506D01*
X492254Y341142D01*
X492557Y340990D01*
X492709Y340687D01*
X256540Y222958D02*
X253862Y220280D01*
X256540Y222958D02*
X256540Y226746D01*
X253862Y229424D01*
X240284Y229424D01*
X240284Y231086D01*
X253862Y231086D01*
X256540Y233764D01*
X256540Y237551D01*
X253862Y240230D01*
X249315Y240230D01*
X249315Y242608D01*
X247366Y245985D01*
X247715Y245985D01*
X248920Y245641D01*
X249540Y245985D01*
X250249Y245985D01*
X251136Y246871D01*
X252231Y247480D01*
X252426Y248162D01*
X252928Y248663D01*
X252928Y249917D01*
X253272Y251122D01*
X252928Y251742D01*
X252928Y252307D01*
X253862Y252307D01*
X256540Y254985D01*
X256540Y258772D01*
X253862Y261451D01*
X252928Y261451D01*
X252928Y261482D01*
X250249Y264160D01*
X246462Y264160D01*
X243784Y261482D01*
X243784Y261451D01*
X242849Y261451D01*
X240171Y258772D01*
X240171Y257650D01*
X235147Y259086D01*
X231836Y257246D01*
X230796Y253604D01*
X232635Y250294D01*
X237282Y248966D01*
X233575Y246826D01*
X233575Y246826D01*
X233575Y246826D01*
X231140Y242608D01*
X231140Y233764D01*
X232391Y232513D01*
X231140Y231261D01*
X231140Y218443D01*
X233818Y215765D01*
X237606Y215765D01*
X240284Y218443D01*
X240284Y220280D01*
X253862Y220280D01*
X410210Y310780D02*
X410210Y314988D01*
X407896Y318996D01*
X407896Y318996D01*
X403888Y321310D01*
X399491Y321310D01*
X395685Y319614D01*
X395685Y319614D01*
X393324Y316989D01*
X392235Y318875D01*
X392235Y318875D01*
X392235Y318875D01*
X388018Y321310D01*
X379173Y321310D01*
X376495Y318632D01*
X376495Y298588D01*
X379173Y295910D01*
X382961Y295910D01*
X385639Y298588D01*
X385639Y299177D01*
X386856Y296743D01*
X390449Y295546D01*
X393535Y297089D01*
X394713Y295910D01*
X394926Y295910D01*
X395089Y295772D01*
X396792Y295910D01*
X407532Y295910D01*
X410210Y298588D01*
X410210Y302376D01*
X407532Y305054D01*
X406494Y305054D01*
X407611Y306369D01*
X408765Y307467D01*
X408765Y307468D01*
X408988Y307989D01*
X408993Y307995D01*
X408993Y308000D01*
X410165Y310736D01*
X410210Y310780D01*
X232410Y333584D02*
X229732Y330906D01*
X232410Y333584D02*
X232410Y337371D01*
X229732Y340050D01*
X216154Y340050D01*
X216154Y341711D01*
X229732Y341711D01*
X232410Y344389D01*
X232410Y348177D01*
X229732Y350855D01*
X225185Y350855D01*
X225185Y353234D01*
X222750Y357451D01*
X222750Y357451D01*
X222750Y357451D01*
X220839Y358555D01*
X223266Y360982D01*
X223266Y359289D01*
X225944Y356610D01*
X229732Y356610D01*
X232410Y359289D01*
X232410Y368133D01*
X229975Y372350D01*
X229975Y372350D01*
X229975Y372350D01*
X225757Y374785D01*
X220887Y374785D01*
X219137Y373775D01*
X217387Y374785D01*
X213001Y374785D01*
X209203Y372592D01*
X209203Y372592D01*
X209203Y372592D01*
X207010Y368794D01*
X207010Y359289D01*
X209226Y357072D01*
X207010Y353234D01*
X207010Y344389D01*
X208261Y343138D01*
X207010Y341887D01*
X207010Y329068D01*
X209688Y326390D01*
X213476Y326390D01*
X216154Y329068D01*
X216154Y330906D01*
X229732Y330906D01*
X155056Y516890D02*
X151268Y516890D01*
X148590Y514212D01*
X148590Y498143D01*
X151025Y493925D01*
X151025Y493925D01*
X151025Y493925D01*
X155243Y491490D01*
X160113Y491490D01*
X164330Y493925D01*
X164330Y493925D01*
X164330Y493925D01*
X164742Y494639D01*
X164742Y494168D01*
X167420Y491490D01*
X180239Y491490D01*
X182917Y494168D01*
X182917Y497956D01*
X180239Y500634D01*
X178402Y500634D01*
X178402Y512065D01*
X178583Y513695D01*
X178402Y513922D01*
X178402Y514212D01*
X177242Y515372D01*
X176217Y516653D01*
X175929Y516685D01*
X175724Y516890D01*
X174083Y516890D01*
X172452Y517071D01*
X172226Y516890D01*
X171936Y516890D01*
X170776Y515730D01*
X166765Y512521D01*
X166765Y514212D01*
X164087Y516890D01*
X160299Y516890D01*
X157678Y514268D01*
X155056Y516890D01*
X104383Y385557D02*
X105410Y384531D01*
X104383Y385557D02*
X105410Y386584D01*
X105410Y399402D01*
X102732Y402081D01*
X98944Y402081D01*
X96266Y399402D01*
X96266Y397565D01*
X84835Y397565D01*
X83205Y397746D01*
X82978Y397565D01*
X82688Y397565D01*
X81528Y396405D01*
X80247Y395380D01*
X80215Y395092D01*
X80010Y394887D01*
X80010Y393246D01*
X79829Y391616D01*
X80010Y391389D01*
X80010Y391099D01*
X81170Y389939D01*
X83354Y387209D01*
X82688Y387209D01*
X80010Y384531D01*
X80010Y380918D01*
X80010Y380918D01*
X80010Y379024D01*
X80010Y376831D01*
X80010Y376831D01*
X82203Y373033D01*
X82203Y373033D01*
X82203Y373033D01*
X86001Y370840D01*
X99419Y370840D01*
X103217Y373033D01*
X103217Y373033D01*
X105410Y376831D01*
X105410Y380918D01*
X105410Y384531D01*
X324982Y421640D02*
X327660Y424318D01*
X327660Y428106D01*
X324982Y430784D01*
X324393Y430784D01*
X326827Y432001D01*
X328024Y435594D01*
X326481Y438679D01*
X327660Y439858D01*
X327660Y452677D01*
X324982Y455355D01*
X321194Y455355D01*
X318516Y452677D01*
X318516Y450839D01*
X307085Y450839D01*
X305455Y451020D01*
X305228Y450839D01*
X304938Y450839D01*
X303778Y449679D01*
X302497Y448654D01*
X302465Y448366D01*
X302260Y448161D01*
X302260Y446520D01*
X302079Y444890D01*
X302260Y444663D01*
X302260Y444373D01*
X303420Y443213D01*
X307015Y438720D01*
X304695Y437380D01*
X304695Y437380D01*
X302260Y433163D01*
X302260Y424318D01*
X304938Y421640D01*
X308726Y421640D01*
X324982Y421640D01*
X276434Y542290D02*
X273756Y544968D01*
X276434Y542290D02*
X280221Y542290D01*
X282900Y544968D01*
X282900Y558546D01*
X284561Y558546D01*
X284561Y544968D01*
X287239Y542290D01*
X291027Y542290D01*
X293705Y544968D01*
X293705Y549515D01*
X296084Y549515D01*
X300301Y551950D01*
X300301Y551950D01*
X300301Y551950D01*
X302130Y555117D01*
X303976Y554912D01*
X303976Y551434D01*
X302139Y551434D01*
X299460Y548756D01*
X299460Y544968D01*
X302139Y542290D01*
X314957Y542290D01*
X317635Y544968D01*
X317635Y548756D01*
X314957Y551434D01*
X313120Y551434D01*
X313120Y562865D01*
X313301Y564495D01*
X313120Y564722D01*
X313120Y565012D01*
X311960Y566172D01*
X310935Y567453D01*
X310647Y567485D01*
X310442Y567690D01*
X308801Y567690D01*
X307171Y567871D01*
X306944Y567690D01*
X306654Y567690D01*
X305494Y566530D01*
X301438Y563285D01*
X300301Y565255D01*
X300301Y565255D01*
X300301Y565255D01*
X296084Y567690D01*
X287239Y567690D01*
X285988Y566439D01*
X284737Y567690D01*
X271918Y567690D01*
X269240Y565012D01*
X269240Y561224D01*
X271918Y558546D01*
X273756Y558546D01*
X273756Y544968D01*
X28550Y308740D02*
X16510Y308740D01*
X16510Y311280D01*
X28550Y311280D01*
X28550Y320012D01*
X28290Y320981D01*
X27789Y321849D01*
X27079Y322559D01*
X26211Y323060D01*
X25242Y323320D01*
X16510Y323320D01*
X16510Y311280D01*
X13970Y311280D01*
X13970Y323320D01*
X5238Y323320D01*
X4269Y323060D01*
X3401Y322559D01*
X2691Y321849D01*
X2190Y320981D01*
X1930Y320012D01*
X1930Y311280D01*
X13970Y311280D01*
X13970Y308740D01*
X1930Y308740D01*
X1930Y300008D01*
X2190Y299039D01*
X2691Y298171D01*
X3401Y297461D01*
X4269Y296960D01*
X5238Y296700D01*
X13970Y296700D01*
X13970Y308740D01*
X16510Y308740D01*
X16510Y296700D01*
X25242Y296700D01*
X26211Y296960D01*
X27079Y297461D01*
X27789Y298171D01*
X28290Y299039D01*
X28550Y300008D01*
X28550Y308740D01*
X28550Y257240D02*
X16510Y257240D01*
X16510Y259780D01*
X28550Y259780D01*
X28550Y268512D01*
X28290Y269481D01*
X27789Y270349D01*
X27628Y270510D01*
X27789Y270671D01*
X28290Y271539D01*
X28550Y272508D01*
X28550Y281240D01*
X16510Y281240D01*
X16510Y283780D01*
X28550Y283780D01*
X28550Y292512D01*
X28290Y293481D01*
X27789Y294349D01*
X27079Y295059D01*
X26211Y295560D01*
X25242Y295820D01*
X16510Y295820D01*
X16510Y283780D01*
X13970Y283780D01*
X13970Y295820D01*
X5238Y295820D01*
X4269Y295560D01*
X3401Y295059D01*
X2691Y294349D01*
X2190Y293481D01*
X1930Y292512D01*
X1930Y283780D01*
X13970Y283780D01*
X13970Y281240D01*
X1930Y281240D01*
X1930Y272508D01*
X2190Y271539D01*
X2691Y270671D01*
X2852Y270510D01*
X2691Y270349D01*
X2190Y269481D01*
X1930Y268512D01*
X1930Y259780D01*
X13970Y259780D01*
X13970Y257240D01*
X1930Y257240D01*
X1930Y248508D01*
X2190Y247539D01*
X2691Y246671D01*
X3401Y245961D01*
X4269Y245460D01*
X5238Y245200D01*
X13970Y245200D01*
X13970Y257240D01*
X16510Y257240D01*
X16510Y245200D01*
X25242Y245200D01*
X26211Y245460D01*
X27079Y245961D01*
X27789Y246671D01*
X28290Y247539D01*
X28550Y248508D01*
X28550Y257240D01*
X87520Y444470D02*
X99060Y444470D01*
X99060Y441930D01*
X87520Y441930D01*
X87520Y434698D01*
X87780Y433729D01*
X88281Y432861D01*
X88991Y432151D01*
X89859Y431650D01*
X90828Y431390D01*
X99060Y431390D01*
X99060Y441930D01*
X101600Y441930D01*
X101600Y431390D01*
X109832Y431390D01*
X110801Y431650D01*
X111669Y432151D01*
X112379Y432861D01*
X112880Y433729D01*
X113140Y434698D01*
X113140Y441930D01*
X101600Y441930D01*
X101600Y444470D01*
X113140Y444470D01*
X113140Y451702D01*
X112880Y452671D01*
X112379Y453539D01*
X111669Y454249D01*
X110801Y454750D01*
X109832Y455010D01*
X101600Y455010D01*
X101600Y444470D01*
X99060Y444470D01*
X99060Y455010D01*
X90828Y455010D01*
X89859Y454750D01*
X88991Y454249D01*
X88281Y453539D01*
X87780Y452671D01*
X87520Y451702D01*
X87520Y444470D01*
X0Y152400D02*
X590550Y152400D01*
X590550Y177800D02*
X0Y177800D01*
X0Y203200D02*
X590550Y203200D01*
X1930Y228600D02*
X0Y228600D01*
X13970Y228600D02*
X16510Y228600D01*
X28550Y228600D02*
X231140Y228600D01*
X254686Y228600D02*
X282263Y228600D01*
X290830Y228600D02*
X293370Y228600D01*
X301937Y228600D02*
X590550Y228600D01*
X1930Y254000D02*
X0Y254000D01*
X13970Y254000D02*
X16510Y254000D01*
X28550Y254000D02*
X31786Y254000D01*
X41990Y254000D02*
X41990Y254000D01*
X52194Y254000D02*
X230909Y254000D01*
X255555Y254000D02*
X280790Y254000D01*
X290830Y254000D02*
X293370Y254000D01*
X303410Y254000D02*
X590550Y254000D01*
X1930Y279400D02*
X0Y279400D01*
X13970Y279400D02*
X16510Y279400D01*
X28550Y279400D02*
X31449Y279400D01*
X52531Y279400D02*
X590550Y279400D01*
X1930Y304800D02*
X0Y304800D01*
X13970Y304800D02*
X16510Y304800D01*
X28550Y304800D02*
X36910Y304800D01*
X47070Y304800D02*
X376495Y304800D01*
X407786Y304800D02*
X590550Y304800D01*
X36910Y330200D02*
X0Y330200D01*
X47070Y330200D02*
X207010Y330200D01*
X216154Y330200D02*
X590550Y330200D01*
X36910Y355600D02*
X0Y355600D01*
X47070Y355600D02*
X208376Y355600D01*
X223819Y355600D02*
X263162Y355600D01*
X285478Y355600D02*
X391770Y355600D01*
X401930Y355600D02*
X495527Y355600D01*
X505769Y355600D02*
X590550Y355600D01*
X36910Y381000D02*
X0Y381000D01*
X47070Y381000D02*
X80010Y381000D01*
X105410Y381000D02*
X269240Y381000D01*
X279400Y381000D02*
X391770Y381000D01*
X467010Y381000D02*
X491490Y381000D01*
X508000Y381000D02*
X590550Y381000D01*
X36910Y406400D02*
X0Y406400D01*
X47070Y406400D02*
X269240Y406400D01*
X279400Y406400D02*
X447390Y406400D01*
X467010Y406400D02*
X491490Y406400D01*
X508000Y406400D02*
X590550Y406400D01*
X36910Y431800D02*
X0Y431800D01*
X47070Y431800D02*
X89599Y431800D01*
X99060Y431800D02*
X101600Y431800D01*
X111061Y431800D02*
X174690Y431800D01*
X184850Y431800D02*
X261495Y431800D01*
X287145Y431800D02*
X302260Y431800D01*
X326425Y431800D02*
X387350Y431800D01*
X410210Y431800D02*
X438890Y431800D01*
X446470Y431800D02*
X448930Y431800D01*
X486584Y431800D02*
X590550Y431800D01*
X36910Y457200D02*
X0Y457200D01*
X47070Y457200D02*
X174690Y457200D01*
X287145Y457200D02*
X448390Y457200D01*
X471780Y457200D02*
X497616Y457200D01*
X511984Y457200D02*
X590550Y457200D01*
X89342Y482600D02*
X0Y482600D01*
X111318Y482600D02*
X197750Y482600D01*
X207910Y482600D02*
X424513Y482600D01*
X431580Y482600D02*
X434120Y482600D01*
X441187Y482600D02*
X461620Y482600D01*
X471780Y482600D02*
X523016Y482600D01*
X549588Y482600D02*
X568960Y482600D01*
X578104Y482600D02*
X590550Y482600D01*
X148590Y508000D02*
X0Y508000D01*
X178402Y508000D02*
X197750Y508000D01*
X207910Y508000D02*
X272290Y508000D01*
X311910Y508000D02*
X423040Y508000D01*
X442660Y508000D02*
X454040Y508000D01*
X476660Y508000D02*
X528440Y508000D01*
X551060Y508000D02*
X570326Y508000D01*
X520700Y533400D02*
X76200Y533400D01*
X529590Y533400D02*
X590550Y533400D01*
X271664Y558800D02*
X76200Y558800D01*
X313120Y558800D02*
X522911Y558800D01*
X532777Y558800D02*
X534251Y558800D01*
X543560Y558800D02*
X590550Y558800D01*
X0Y520700D02*
X0Y139700D01*
X25400Y139700D02*
X25400Y217742D01*
X25400Y229740D02*
X25400Y232280D01*
X25400Y244278D02*
X25400Y245242D01*
X25400Y257240D02*
X25400Y259780D01*
X25400Y281240D02*
X25400Y283780D01*
X25400Y295778D02*
X25400Y296742D01*
X25400Y308740D02*
X25400Y311280D01*
X25400Y323278D02*
X25400Y520700D01*
X50800Y252406D02*
X50800Y139700D01*
X50800Y257510D02*
X50800Y257510D01*
X50800Y288724D02*
X50800Y466120D01*
X50800Y476280D02*
X50800Y520700D01*
X76200Y466120D02*
X76200Y139700D01*
X76200Y476280D02*
X76200Y577850D01*
X101600Y372099D02*
X101600Y139700D01*
X101600Y402081D02*
X101600Y431390D01*
X101600Y455010D02*
X101600Y459390D01*
X101600Y483010D02*
X101600Y577850D01*
X127000Y466120D02*
X127000Y139700D01*
X127000Y476280D02*
X127000Y577850D01*
X152400Y466120D02*
X152400Y139700D01*
X152400Y476280D02*
X152400Y493131D01*
X152400Y516890D02*
X152400Y577850D01*
X177800Y421390D02*
X177800Y139700D01*
X177800Y476280D02*
X177800Y491490D01*
X177800Y514814D02*
X177800Y577850D01*
X203200Y421390D02*
X203200Y139700D01*
X203200Y431550D02*
X203200Y449190D01*
X203200Y520700D02*
X203200Y577850D01*
X228600Y330906D02*
X228600Y139700D01*
X228600Y340050D02*
X228600Y341711D01*
X228600Y350855D02*
X228600Y356610D01*
X228600Y373144D02*
X228600Y421390D01*
X228600Y431550D02*
X228600Y452170D01*
X228600Y462330D02*
X228600Y510540D01*
X228600Y520700D02*
X228600Y577850D01*
X254000Y220418D02*
X254000Y139700D01*
X254000Y229286D02*
X254000Y231224D01*
X254000Y240091D02*
X254000Y252445D01*
X254000Y261312D02*
X254000Y421390D01*
X254000Y431550D02*
X254000Y452170D01*
X254000Y462330D02*
X254000Y510540D01*
X254000Y520700D02*
X254000Y577850D01*
X279400Y334520D02*
X279400Y139700D01*
X279400Y374140D02*
X279400Y414660D01*
X279400Y438280D02*
X279400Y443100D01*
X279400Y466720D02*
X279400Y504310D01*
X279400Y526930D02*
X279400Y542290D01*
X279400Y567690D02*
X279400Y577850D01*
X304800Y337820D02*
X304800Y139700D01*
X304800Y347980D02*
X304800Y421778D01*
X304800Y437441D02*
X304800Y441488D01*
X304800Y450701D02*
X304800Y504310D01*
X304800Y526930D02*
X304800Y542290D01*
X304800Y565975D02*
X304800Y577850D01*
X330200Y337820D02*
X330200Y139700D01*
X330200Y347980D02*
X330200Y510540D01*
X330200Y520700D02*
X330200Y577850D01*
X355600Y337820D02*
X355600Y139700D01*
X355600Y347980D02*
X355600Y510540D01*
X355600Y520700D02*
X355600Y577850D01*
X381000Y295910D02*
X381000Y139700D01*
X381000Y321310D02*
X381000Y331590D01*
X381000Y354210D02*
X381000Y510540D01*
X381000Y520700D02*
X381000Y577850D01*
X406400Y295910D02*
X406400Y139700D01*
X406400Y319860D02*
X406400Y333062D01*
X406400Y352738D02*
X406400Y378120D01*
X406400Y388280D02*
X406400Y425521D01*
X406400Y434411D02*
X406400Y434416D01*
X406400Y451067D02*
X406400Y510540D01*
X406400Y520700D02*
X406400Y577850D01*
X431800Y378120D02*
X431800Y139700D01*
X431800Y388280D02*
X431800Y490380D01*
X431800Y492920D02*
X431800Y501840D01*
X431800Y521460D02*
X431800Y535940D01*
X431800Y558800D02*
X431800Y577850D01*
X457200Y373390D02*
X457200Y139700D01*
X457200Y393010D02*
X457200Y394390D01*
X457200Y466310D02*
X457200Y489840D01*
X457200Y513460D02*
X457200Y577850D01*
X482600Y428420D02*
X482600Y139700D01*
X482600Y442184D02*
X482600Y577850D01*
X508000Y340725D02*
X508000Y139700D01*
X508000Y342394D02*
X508000Y345834D01*
X508000Y347503D02*
X508000Y411766D01*
X508000Y413438D02*
X508000Y453216D01*
X508000Y467584D02*
X508000Y577850D01*
X533400Y478616D02*
X533400Y139700D01*
X533400Y521460D02*
X533400Y533471D01*
X533400Y542361D02*
X533400Y543027D01*
X533400Y558441D02*
X533400Y559523D01*
X533400Y571385D02*
X533400Y577850D01*
X558800Y577850D02*
X558800Y139700D01*
X584200Y139700D02*
X584200Y483306D01*
X584200Y524333D02*
X584200Y577850D01*
X41990Y471200D02*
X41990Y283510D01*
X41990Y471200D02*
X100330Y471200D01*
X189330Y471200D01*
X189330Y469250D01*
X189330Y465310D01*
X179770Y465310D01*
X179770Y426470D01*
X274320Y426470D01*
X274320Y363830D01*
X274320Y344830D01*
X274320Y342900D01*
X377850Y342900D01*
X202830Y469250D02*
X202830Y515620D01*
X282600Y515620D01*
X301600Y515620D01*
X432850Y515620D01*
X432850Y511650D01*
X539750Y511150D02*
X539750Y492150D01*
X466700Y500300D02*
X466700Y433500D01*
X466700Y500300D02*
X465350Y501650D01*
X466700Y433500D02*
X481100Y433500D01*
X539750Y492150D01*
X457200Y455500D02*
X457200Y404200D01*
X396850Y383200D02*
X396850Y342900D01*
X396850Y383200D02*
X457200Y383200D01*
M02*
