G04 EAGLE Gerber RS-274X export*
G75*
%MOMM*%
%FSLAX34Y34*%
%LPD*%
%IN*%
%IPPOS*%
%AMOC8*
5,1,8,0,0,1.08239X$1,22.5*%
G01*
%ADD10C,0.254000*%


D10*
X0Y25400D02*
X97Y23186D01*
X386Y20989D01*
X865Y18826D01*
X1532Y16713D01*
X2380Y14666D01*
X3403Y12700D01*
X4594Y10831D01*
X5942Y9073D01*
X7440Y7440D01*
X9073Y5942D01*
X10831Y4594D01*
X12700Y3403D01*
X14666Y2380D01*
X16713Y1532D01*
X18826Y865D01*
X20989Y386D01*
X23186Y97D01*
X25400Y0D01*
X806600Y0D01*
X808814Y97D01*
X811011Y386D01*
X813174Y865D01*
X815287Y1532D01*
X817335Y2380D01*
X819300Y3403D01*
X821169Y4594D01*
X822927Y5942D01*
X824561Y7440D01*
X826058Y9073D01*
X827406Y10831D01*
X828597Y12700D01*
X829620Y14666D01*
X830468Y16713D01*
X831135Y18826D01*
X831614Y20989D01*
X831903Y23186D01*
X832000Y25400D01*
X832000Y558000D01*
X831924Y559743D01*
X831696Y561473D01*
X831319Y563176D01*
X830794Y564840D01*
X830126Y566452D01*
X829321Y568000D01*
X828383Y569472D01*
X827321Y570856D01*
X826142Y572142D01*
X824856Y573321D01*
X823472Y574383D01*
X822000Y575321D01*
X820452Y576126D01*
X818840Y576794D01*
X817176Y577319D01*
X815473Y577696D01*
X813743Y577924D01*
X812000Y578000D01*
X25400Y578000D01*
X23186Y577903D01*
X20989Y577614D01*
X18826Y577135D01*
X16713Y576468D01*
X14666Y575620D01*
X12700Y574597D01*
X10831Y573406D01*
X9073Y572058D01*
X7440Y570561D01*
X5942Y568927D01*
X4594Y567169D01*
X3403Y565300D01*
X2380Y563335D01*
X1532Y561287D01*
X865Y559174D01*
X386Y557011D01*
X97Y554814D01*
X0Y552600D01*
X0Y25400D01*
X36524Y287760D02*
X36096Y287828D01*
X35684Y287961D01*
X35299Y288158D01*
X34949Y288412D01*
X34642Y288719D01*
X34388Y289069D01*
X34191Y289454D01*
X34058Y289866D01*
X33990Y290294D01*
X33990Y290726D01*
X34058Y291154D01*
X34191Y291566D01*
X34388Y291951D01*
X34642Y292302D01*
X34949Y292608D01*
X35299Y292862D01*
X35684Y293059D01*
X36096Y293192D01*
X36524Y293260D01*
X36956Y293260D01*
X37384Y293192D01*
X37796Y293059D01*
X38181Y292862D01*
X38532Y292608D01*
X38838Y292302D01*
X39092Y291951D01*
X39289Y291566D01*
X39422Y291154D01*
X39490Y290726D01*
X39490Y290294D01*
X39422Y289866D01*
X39289Y289454D01*
X39092Y289069D01*
X38838Y288719D01*
X38532Y288412D01*
X38181Y288158D01*
X37796Y287961D01*
X37384Y287828D01*
X36956Y287760D01*
X36524Y287760D01*
X36524Y247760D02*
X36096Y247828D01*
X35684Y247961D01*
X35299Y248158D01*
X34949Y248412D01*
X34642Y248719D01*
X34388Y249069D01*
X34191Y249454D01*
X34058Y249866D01*
X33990Y250294D01*
X33990Y250726D01*
X34058Y251154D01*
X34191Y251566D01*
X34388Y251951D01*
X34642Y252302D01*
X34949Y252608D01*
X35299Y252862D01*
X35684Y253059D01*
X36096Y253192D01*
X36524Y253260D01*
X36956Y253260D01*
X37384Y253192D01*
X37796Y253059D01*
X38181Y252862D01*
X38532Y252608D01*
X38838Y252302D01*
X39092Y251951D01*
X39289Y251566D01*
X39422Y251154D01*
X39490Y250726D01*
X39490Y250294D01*
X39422Y249866D01*
X39289Y249454D01*
X39092Y249069D01*
X38838Y248719D01*
X38532Y248412D01*
X38181Y248158D01*
X37796Y247961D01*
X37384Y247828D01*
X36956Y247760D01*
X36524Y247760D01*
M02*
