G04 EAGLE Gerber RS-274X export*
G75*
%MOMM*%
%FSLAX34Y34*%
%LPD*%
%INSilkscreen Top*%
%IPPOS*%
%AMOC8*
5,1,8,0,0,1.08239X$1,22.5*%
G01*
%ADD10C,0.076200*%
%ADD11C,0.200000*%
%ADD12C,0.127000*%
%ADD13C,0.101600*%
%ADD14C,0.240000*%
%ADD15C,0.063400*%
%ADD16C,0.250000*%

G36*
X805511Y10135D02*
X805511Y10135D01*
X805540Y10133D01*
X806197Y10220D01*
X806233Y10233D01*
X806293Y10245D01*
X806906Y10499D01*
X806936Y10521D01*
X806991Y10549D01*
X807518Y10952D01*
X807542Y10982D01*
X807588Y11022D01*
X807991Y11549D01*
X808007Y11583D01*
X808041Y11635D01*
X808295Y12247D01*
X808301Y12285D01*
X808319Y12338D01*
X808319Y12339D01*
X808320Y12343D01*
X808407Y13000D01*
X808405Y13022D01*
X808410Y13050D01*
X808410Y18111D01*
X808527Y19294D01*
X808866Y20414D01*
X809418Y21446D01*
X810160Y22350D01*
X811064Y23092D01*
X812096Y23644D01*
X813216Y23983D01*
X814399Y24100D01*
X819460Y24100D01*
X819481Y24105D01*
X819510Y24103D01*
X820167Y24190D01*
X820203Y24203D01*
X820263Y24215D01*
X820876Y24469D01*
X820906Y24491D01*
X820961Y24519D01*
X821488Y24922D01*
X821512Y24952D01*
X821558Y24992D01*
X821961Y25519D01*
X821977Y25553D01*
X822011Y25605D01*
X822265Y26217D01*
X822271Y26255D01*
X822290Y26313D01*
X822377Y26970D01*
X822375Y26992D01*
X822380Y27020D01*
X822380Y34640D01*
X822375Y34661D01*
X822377Y34690D01*
X822290Y35347D01*
X822277Y35383D01*
X822265Y35443D01*
X822011Y36056D01*
X821989Y36086D01*
X821961Y36141D01*
X821558Y36668D01*
X821528Y36692D01*
X821488Y36738D01*
X820961Y37141D01*
X820927Y37157D01*
X820876Y37191D01*
X820263Y37445D01*
X820226Y37451D01*
X820167Y37470D01*
X819510Y37557D01*
X819488Y37555D01*
X819460Y37560D01*
X811840Y37560D01*
X811819Y37555D01*
X811790Y37557D01*
X811133Y37470D01*
X811097Y37457D01*
X811037Y37445D01*
X810425Y37191D01*
X810394Y37169D01*
X810339Y37141D01*
X809812Y36738D01*
X809788Y36708D01*
X809742Y36668D01*
X809339Y36141D01*
X809323Y36107D01*
X809289Y36056D01*
X809035Y35443D01*
X809029Y35406D01*
X809010Y35347D01*
X808923Y34690D01*
X808925Y34668D01*
X808920Y34640D01*
X808920Y29579D01*
X808803Y28396D01*
X808464Y27276D01*
X807912Y26244D01*
X807170Y25340D01*
X806266Y24598D01*
X805234Y24046D01*
X804114Y23707D01*
X802931Y23590D01*
X797870Y23590D01*
X797849Y23585D01*
X797820Y23587D01*
X797163Y23500D01*
X797127Y23487D01*
X797067Y23475D01*
X796455Y23221D01*
X796424Y23199D01*
X796369Y23171D01*
X795842Y22768D01*
X795818Y22738D01*
X795772Y22698D01*
X795369Y22171D01*
X795353Y22137D01*
X795319Y22086D01*
X795065Y21473D01*
X795059Y21436D01*
X795040Y21377D01*
X794953Y20720D01*
X794955Y20698D01*
X794950Y20670D01*
X794950Y13050D01*
X794955Y13029D01*
X794953Y13000D01*
X795040Y12343D01*
X795047Y12323D01*
X795047Y12311D01*
X795055Y12296D01*
X795065Y12247D01*
X795319Y11635D01*
X795341Y11604D01*
X795369Y11549D01*
X795772Y11022D01*
X795777Y11019D01*
X795777Y11018D01*
X795784Y11013D01*
X795802Y10998D01*
X795842Y10952D01*
X796369Y10549D01*
X796403Y10533D01*
X796455Y10499D01*
X797067Y10245D01*
X797105Y10239D01*
X797163Y10220D01*
X797820Y10133D01*
X797842Y10135D01*
X797870Y10130D01*
X805490Y10130D01*
X805511Y10135D01*
G37*
G36*
X791541Y24105D02*
X791541Y24105D01*
X791570Y24103D01*
X792227Y24190D01*
X792263Y24203D01*
X792323Y24215D01*
X792936Y24469D01*
X792966Y24491D01*
X793021Y24519D01*
X793548Y24922D01*
X793572Y24952D01*
X793618Y24992D01*
X794021Y25519D01*
X794037Y25553D01*
X794071Y25605D01*
X794325Y26217D01*
X794331Y26255D01*
X794349Y26307D01*
X794349Y26309D01*
X794350Y26313D01*
X794437Y26970D01*
X794435Y26992D01*
X794440Y27020D01*
X794440Y34640D01*
X794435Y34661D01*
X794437Y34690D01*
X794350Y35347D01*
X794337Y35383D01*
X794325Y35443D01*
X794071Y36056D01*
X794049Y36086D01*
X794021Y36141D01*
X793618Y36668D01*
X793588Y36692D01*
X793548Y36738D01*
X793021Y37141D01*
X792987Y37157D01*
X792936Y37191D01*
X792323Y37445D01*
X792286Y37451D01*
X792227Y37470D01*
X791570Y37557D01*
X791548Y37555D01*
X791520Y37560D01*
X783900Y37560D01*
X783879Y37555D01*
X783850Y37557D01*
X783193Y37470D01*
X783157Y37457D01*
X783097Y37445D01*
X782485Y37191D01*
X782454Y37169D01*
X782399Y37141D01*
X781872Y36738D01*
X781848Y36708D01*
X781802Y36668D01*
X781399Y36141D01*
X781383Y36107D01*
X781349Y36056D01*
X781095Y35443D01*
X781089Y35406D01*
X781070Y35347D01*
X780983Y34690D01*
X780985Y34668D01*
X780980Y34640D01*
X780980Y27020D01*
X780985Y26999D01*
X780983Y26970D01*
X781070Y26313D01*
X781077Y26293D01*
X781077Y26281D01*
X781085Y26266D01*
X781095Y26217D01*
X781349Y25605D01*
X781371Y25574D01*
X781399Y25519D01*
X781802Y24992D01*
X781807Y24989D01*
X781807Y24988D01*
X781814Y24983D01*
X781832Y24968D01*
X781872Y24922D01*
X782399Y24519D01*
X782433Y24503D01*
X782485Y24469D01*
X783097Y24215D01*
X783135Y24209D01*
X783193Y24190D01*
X783850Y24103D01*
X783872Y24105D01*
X783900Y24100D01*
X791520Y24100D01*
X791541Y24105D01*
G37*
D10*
X762381Y13937D02*
X763566Y10381D01*
X764752Y13937D01*
X768652Y15715D02*
X768724Y15713D01*
X768796Y15707D01*
X768868Y15697D01*
X768939Y15684D01*
X769009Y15666D01*
X769078Y15645D01*
X769146Y15620D01*
X769212Y15592D01*
X769277Y15560D01*
X769340Y15524D01*
X769401Y15485D01*
X769459Y15443D01*
X769516Y15398D01*
X769569Y15349D01*
X769620Y15298D01*
X769669Y15245D01*
X769714Y15188D01*
X769756Y15130D01*
X769795Y15069D01*
X769831Y15006D01*
X769863Y14941D01*
X769891Y14875D01*
X769916Y14807D01*
X769937Y14738D01*
X769955Y14668D01*
X769968Y14597D01*
X769978Y14525D01*
X769984Y14453D01*
X769986Y14381D01*
X768652Y15715D02*
X768572Y15713D01*
X768493Y15708D01*
X768413Y15698D01*
X768335Y15685D01*
X768257Y15669D01*
X768179Y15649D01*
X768103Y15625D01*
X768028Y15597D01*
X767955Y15567D01*
X767883Y15533D01*
X767812Y15495D01*
X767744Y15454D01*
X767677Y15410D01*
X767612Y15364D01*
X767550Y15314D01*
X767490Y15261D01*
X767433Y15205D01*
X767378Y15147D01*
X767326Y15087D01*
X767277Y15024D01*
X767231Y14959D01*
X767188Y14892D01*
X767148Y14823D01*
X767112Y14752D01*
X767078Y14679D01*
X767049Y14605D01*
X767022Y14530D01*
X769541Y13344D02*
X769592Y13395D01*
X769640Y13449D01*
X769686Y13505D01*
X769729Y13564D01*
X769769Y13624D01*
X769805Y13687D01*
X769839Y13751D01*
X769869Y13817D01*
X769896Y13884D01*
X769919Y13953D01*
X769939Y14022D01*
X769956Y14093D01*
X769969Y14164D01*
X769978Y14236D01*
X769983Y14309D01*
X769985Y14381D01*
X769541Y13344D02*
X767022Y10381D01*
X769986Y10381D01*
X772196Y10381D02*
X772196Y10677D01*
X772493Y10677D01*
X772493Y10381D01*
X772196Y10381D01*
X774703Y13048D02*
X774705Y13173D01*
X774710Y13297D01*
X774719Y13421D01*
X774731Y13545D01*
X774747Y13669D01*
X774766Y13792D01*
X774789Y13915D01*
X774816Y14037D01*
X774845Y14158D01*
X774878Y14278D01*
X774915Y14397D01*
X774955Y14515D01*
X774998Y14632D01*
X775045Y14747D01*
X775095Y14862D01*
X775148Y14974D01*
X775171Y15035D01*
X775197Y15094D01*
X775227Y15152D01*
X775260Y15207D01*
X775297Y15261D01*
X775336Y15312D01*
X775378Y15361D01*
X775424Y15407D01*
X775472Y15451D01*
X775522Y15492D01*
X775575Y15529D01*
X775629Y15564D01*
X775686Y15595D01*
X775745Y15623D01*
X775805Y15647D01*
X775866Y15668D01*
X775928Y15685D01*
X775992Y15698D01*
X776056Y15707D01*
X776120Y15713D01*
X776185Y15715D01*
X776250Y15713D01*
X776314Y15707D01*
X776378Y15698D01*
X776442Y15685D01*
X776504Y15668D01*
X776565Y15647D01*
X776625Y15623D01*
X776684Y15595D01*
X776741Y15564D01*
X776795Y15529D01*
X776848Y15492D01*
X776898Y15451D01*
X776946Y15407D01*
X776992Y15361D01*
X777034Y15312D01*
X777073Y15261D01*
X777110Y15207D01*
X777143Y15152D01*
X777173Y15094D01*
X777199Y15035D01*
X777222Y14974D01*
X777275Y14862D01*
X777325Y14747D01*
X777372Y14632D01*
X777415Y14515D01*
X777455Y14397D01*
X777492Y14278D01*
X777525Y14158D01*
X777554Y14037D01*
X777581Y13915D01*
X777604Y13792D01*
X777623Y13669D01*
X777639Y13545D01*
X777651Y13421D01*
X777660Y13297D01*
X777665Y13173D01*
X777667Y13048D01*
X774703Y13048D02*
X774705Y12923D01*
X774710Y12799D01*
X774719Y12675D01*
X774731Y12551D01*
X774747Y12427D01*
X774766Y12304D01*
X774789Y12181D01*
X774816Y12060D01*
X774845Y11939D01*
X774878Y11818D01*
X774915Y11699D01*
X774955Y11581D01*
X774998Y11464D01*
X775045Y11349D01*
X775095Y11234D01*
X775148Y11122D01*
X775171Y11061D01*
X775197Y11002D01*
X775227Y10944D01*
X775260Y10889D01*
X775297Y10835D01*
X775336Y10784D01*
X775378Y10735D01*
X775424Y10689D01*
X775472Y10645D01*
X775522Y10604D01*
X775575Y10567D01*
X775629Y10532D01*
X775686Y10501D01*
X775745Y10473D01*
X775805Y10449D01*
X775866Y10428D01*
X775928Y10411D01*
X775992Y10398D01*
X776056Y10389D01*
X776120Y10383D01*
X776185Y10381D01*
X777222Y11122D02*
X777275Y11234D01*
X777325Y11349D01*
X777372Y11464D01*
X777415Y11581D01*
X777455Y11699D01*
X777492Y11818D01*
X777525Y11939D01*
X777554Y12060D01*
X777581Y12181D01*
X777604Y12304D01*
X777623Y12427D01*
X777639Y12551D01*
X777651Y12675D01*
X777660Y12799D01*
X777665Y12923D01*
X777667Y13048D01*
X777222Y11122D02*
X777199Y11061D01*
X777173Y11002D01*
X777143Y10944D01*
X777110Y10889D01*
X777073Y10835D01*
X777034Y10784D01*
X776992Y10735D01*
X776946Y10689D01*
X776898Y10645D01*
X776848Y10604D01*
X776795Y10567D01*
X776741Y10532D01*
X776684Y10501D01*
X776625Y10473D01*
X776565Y10449D01*
X776504Y10428D01*
X776442Y10411D01*
X776378Y10398D01*
X776314Y10389D01*
X776250Y10383D01*
X776185Y10381D01*
X775000Y11566D02*
X777370Y14530D01*
X20381Y555333D02*
X20381Y560667D01*
X22752Y560667D01*
X22752Y558296D02*
X20381Y558296D01*
X25167Y560667D02*
X25167Y555333D01*
X25167Y560667D02*
X26649Y560667D01*
X26725Y560665D01*
X26801Y560659D01*
X26877Y560649D01*
X26952Y560636D01*
X27026Y560618D01*
X27100Y560597D01*
X27172Y560572D01*
X27242Y560543D01*
X27312Y560511D01*
X27379Y560475D01*
X27444Y560435D01*
X27508Y560393D01*
X27569Y560347D01*
X27627Y560298D01*
X27683Y560246D01*
X27737Y560192D01*
X27787Y560134D01*
X27834Y560075D01*
X27879Y560012D01*
X27920Y559948D01*
X27957Y559882D01*
X27991Y559813D01*
X28022Y559743D01*
X28049Y559672D01*
X28072Y559599D01*
X28091Y559525D01*
X28107Y559451D01*
X28119Y559375D01*
X28127Y559299D01*
X28131Y559223D01*
X28131Y559147D01*
X28127Y559071D01*
X28119Y558995D01*
X28107Y558919D01*
X28091Y558845D01*
X28072Y558771D01*
X28049Y558698D01*
X28022Y558627D01*
X27991Y558557D01*
X27957Y558488D01*
X27920Y558422D01*
X27879Y558358D01*
X27834Y558295D01*
X27787Y558236D01*
X27737Y558178D01*
X27683Y558124D01*
X27627Y558072D01*
X27569Y558023D01*
X27508Y557977D01*
X27444Y557935D01*
X27379Y557895D01*
X27312Y557859D01*
X27242Y557827D01*
X27172Y557798D01*
X27100Y557773D01*
X27026Y557752D01*
X26952Y557734D01*
X26877Y557721D01*
X26801Y557711D01*
X26725Y557705D01*
X26649Y557703D01*
X26649Y557704D02*
X25167Y557704D01*
X26945Y557704D02*
X28131Y555333D01*
X30608Y556518D02*
X31794Y560667D01*
X30608Y556518D02*
X33572Y556518D01*
X32683Y555333D02*
X32683Y557704D01*
D11*
X202278Y482685D02*
X202280Y482748D01*
X202286Y482810D01*
X202296Y482872D01*
X202309Y482934D01*
X202327Y482994D01*
X202348Y483053D01*
X202373Y483111D01*
X202402Y483167D01*
X202434Y483221D01*
X202469Y483273D01*
X202507Y483322D01*
X202549Y483370D01*
X202593Y483414D01*
X202641Y483456D01*
X202690Y483494D01*
X202742Y483529D01*
X202796Y483561D01*
X202852Y483590D01*
X202910Y483615D01*
X202969Y483636D01*
X203029Y483654D01*
X203091Y483667D01*
X203153Y483677D01*
X203215Y483683D01*
X203278Y483685D01*
X203341Y483683D01*
X203403Y483677D01*
X203465Y483667D01*
X203527Y483654D01*
X203587Y483636D01*
X203646Y483615D01*
X203704Y483590D01*
X203760Y483561D01*
X203814Y483529D01*
X203866Y483494D01*
X203915Y483456D01*
X203963Y483414D01*
X204007Y483370D01*
X204049Y483322D01*
X204087Y483273D01*
X204122Y483221D01*
X204154Y483167D01*
X204183Y483111D01*
X204208Y483053D01*
X204229Y482994D01*
X204247Y482934D01*
X204260Y482872D01*
X204270Y482810D01*
X204276Y482748D01*
X204278Y482685D01*
X204276Y482622D01*
X204270Y482560D01*
X204260Y482498D01*
X204247Y482436D01*
X204229Y482376D01*
X204208Y482317D01*
X204183Y482259D01*
X204154Y482203D01*
X204122Y482149D01*
X204087Y482097D01*
X204049Y482048D01*
X204007Y482000D01*
X203963Y481956D01*
X203915Y481914D01*
X203866Y481876D01*
X203814Y481841D01*
X203760Y481809D01*
X203704Y481780D01*
X203646Y481755D01*
X203587Y481734D01*
X203527Y481716D01*
X203465Y481703D01*
X203403Y481693D01*
X203341Y481687D01*
X203278Y481685D01*
X203215Y481687D01*
X203153Y481693D01*
X203091Y481703D01*
X203029Y481716D01*
X202969Y481734D01*
X202910Y481755D01*
X202852Y481780D01*
X202796Y481809D01*
X202742Y481841D01*
X202690Y481876D01*
X202641Y481914D01*
X202593Y481956D01*
X202549Y482000D01*
X202507Y482048D01*
X202469Y482097D01*
X202434Y482149D01*
X202402Y482203D01*
X202373Y482259D01*
X202348Y482317D01*
X202327Y482376D01*
X202309Y482436D01*
X202296Y482498D01*
X202286Y482560D01*
X202280Y482622D01*
X202278Y482685D01*
D12*
X205580Y477250D02*
X185580Y477250D01*
X185580Y449850D02*
X205580Y449850D01*
D13*
X216408Y470140D02*
X224846Y470140D01*
X224846Y470139D02*
X224959Y470141D01*
X225072Y470147D01*
X225185Y470157D01*
X225298Y470171D01*
X225410Y470188D01*
X225521Y470210D01*
X225631Y470235D01*
X225741Y470265D01*
X225849Y470298D01*
X225956Y470335D01*
X226062Y470375D01*
X226166Y470420D01*
X226269Y470468D01*
X226370Y470519D01*
X226469Y470574D01*
X226566Y470632D01*
X226661Y470694D01*
X226754Y470759D01*
X226844Y470827D01*
X226932Y470898D01*
X227018Y470973D01*
X227101Y471050D01*
X227181Y471130D01*
X227258Y471213D01*
X227333Y471299D01*
X227404Y471387D01*
X227472Y471477D01*
X227537Y471570D01*
X227599Y471665D01*
X227657Y471762D01*
X227712Y471861D01*
X227763Y471962D01*
X227811Y472065D01*
X227856Y472169D01*
X227896Y472275D01*
X227933Y472382D01*
X227966Y472490D01*
X227996Y472600D01*
X228021Y472710D01*
X228043Y472821D01*
X228060Y472933D01*
X228074Y473046D01*
X228084Y473159D01*
X228090Y473272D01*
X228092Y473385D01*
X228090Y473498D01*
X228084Y473611D01*
X228074Y473724D01*
X228060Y473837D01*
X228043Y473949D01*
X228021Y474060D01*
X227996Y474170D01*
X227966Y474280D01*
X227933Y474388D01*
X227896Y474495D01*
X227856Y474601D01*
X227811Y474705D01*
X227763Y474808D01*
X227712Y474909D01*
X227657Y475008D01*
X227599Y475105D01*
X227537Y475200D01*
X227472Y475293D01*
X227404Y475383D01*
X227333Y475471D01*
X227258Y475557D01*
X227181Y475640D01*
X227101Y475720D01*
X227018Y475797D01*
X226932Y475872D01*
X226844Y475943D01*
X226754Y476011D01*
X226661Y476076D01*
X226566Y476138D01*
X226469Y476196D01*
X226370Y476251D01*
X226269Y476302D01*
X226166Y476350D01*
X226062Y476395D01*
X225956Y476435D01*
X225849Y476472D01*
X225741Y476505D01*
X225631Y476535D01*
X225521Y476560D01*
X225410Y476582D01*
X225298Y476599D01*
X225185Y476613D01*
X225072Y476623D01*
X224959Y476629D01*
X224846Y476631D01*
X216408Y476631D01*
X219004Y481951D02*
X216408Y485196D01*
X228092Y485196D01*
X228092Y481951D02*
X228092Y488442D01*
X413445Y342392D02*
X413445Y330708D01*
X413445Y342392D02*
X416690Y342392D01*
X416803Y342390D01*
X416916Y342384D01*
X417029Y342374D01*
X417142Y342360D01*
X417254Y342343D01*
X417365Y342321D01*
X417475Y342296D01*
X417585Y342266D01*
X417693Y342233D01*
X417800Y342196D01*
X417906Y342156D01*
X418010Y342111D01*
X418113Y342063D01*
X418214Y342012D01*
X418313Y341957D01*
X418410Y341899D01*
X418505Y341837D01*
X418598Y341772D01*
X418688Y341704D01*
X418776Y341633D01*
X418862Y341558D01*
X418945Y341481D01*
X419025Y341401D01*
X419102Y341318D01*
X419177Y341232D01*
X419248Y341144D01*
X419316Y341054D01*
X419381Y340961D01*
X419443Y340866D01*
X419501Y340769D01*
X419556Y340670D01*
X419607Y340569D01*
X419655Y340466D01*
X419700Y340362D01*
X419740Y340256D01*
X419777Y340149D01*
X419810Y340041D01*
X419840Y339931D01*
X419865Y339821D01*
X419887Y339710D01*
X419904Y339598D01*
X419918Y339485D01*
X419928Y339372D01*
X419934Y339259D01*
X419936Y339146D01*
X419934Y339033D01*
X419928Y338920D01*
X419918Y338807D01*
X419904Y338694D01*
X419887Y338582D01*
X419865Y338471D01*
X419840Y338361D01*
X419810Y338251D01*
X419777Y338143D01*
X419740Y338036D01*
X419700Y337930D01*
X419655Y337826D01*
X419607Y337723D01*
X419556Y337622D01*
X419501Y337523D01*
X419443Y337426D01*
X419381Y337331D01*
X419316Y337238D01*
X419248Y337148D01*
X419177Y337060D01*
X419102Y336974D01*
X419025Y336891D01*
X418945Y336811D01*
X418862Y336734D01*
X418776Y336659D01*
X418688Y336588D01*
X418598Y336520D01*
X418505Y336455D01*
X418410Y336393D01*
X418313Y336335D01*
X418214Y336280D01*
X418113Y336229D01*
X418010Y336181D01*
X417906Y336136D01*
X417800Y336096D01*
X417693Y336059D01*
X417585Y336026D01*
X417475Y335996D01*
X417365Y335971D01*
X417254Y335949D01*
X417142Y335932D01*
X417029Y335918D01*
X416916Y335908D01*
X416803Y335902D01*
X416690Y335900D01*
X416690Y335901D02*
X413445Y335901D01*
X417339Y335901D02*
X419936Y330708D01*
X431292Y339471D02*
X431290Y339578D01*
X431284Y339684D01*
X431274Y339790D01*
X431261Y339896D01*
X431243Y340002D01*
X431222Y340106D01*
X431197Y340210D01*
X431168Y340313D01*
X431136Y340414D01*
X431099Y340514D01*
X431059Y340613D01*
X431016Y340711D01*
X430969Y340807D01*
X430918Y340901D01*
X430864Y340993D01*
X430807Y341083D01*
X430747Y341171D01*
X430683Y341256D01*
X430616Y341339D01*
X430546Y341420D01*
X430474Y341498D01*
X430398Y341574D01*
X430320Y341646D01*
X430239Y341716D01*
X430156Y341783D01*
X430071Y341847D01*
X429983Y341907D01*
X429893Y341964D01*
X429801Y342018D01*
X429707Y342069D01*
X429611Y342116D01*
X429513Y342159D01*
X429414Y342199D01*
X429314Y342236D01*
X429213Y342268D01*
X429110Y342297D01*
X429006Y342322D01*
X428902Y342343D01*
X428796Y342361D01*
X428690Y342374D01*
X428584Y342384D01*
X428478Y342390D01*
X428371Y342392D01*
X428250Y342390D01*
X428129Y342384D01*
X428009Y342374D01*
X427888Y342361D01*
X427769Y342343D01*
X427649Y342322D01*
X427531Y342297D01*
X427414Y342268D01*
X427297Y342235D01*
X427182Y342199D01*
X427068Y342158D01*
X426955Y342115D01*
X426843Y342067D01*
X426734Y342016D01*
X426626Y341961D01*
X426519Y341903D01*
X426415Y341842D01*
X426313Y341777D01*
X426213Y341709D01*
X426115Y341638D01*
X426019Y341564D01*
X425926Y341487D01*
X425836Y341406D01*
X425748Y341323D01*
X425663Y341237D01*
X425580Y341148D01*
X425501Y341057D01*
X425424Y340963D01*
X425351Y340867D01*
X425281Y340769D01*
X425214Y340668D01*
X425150Y340565D01*
X425090Y340460D01*
X425033Y340353D01*
X424979Y340245D01*
X424929Y340135D01*
X424883Y340023D01*
X424840Y339910D01*
X424801Y339795D01*
X430319Y337199D02*
X430398Y337276D01*
X430474Y337357D01*
X430547Y337440D01*
X430617Y337525D01*
X430684Y337613D01*
X430748Y337703D01*
X430808Y337795D01*
X430865Y337890D01*
X430919Y337986D01*
X430970Y338084D01*
X431017Y338184D01*
X431061Y338286D01*
X431101Y338389D01*
X431137Y338493D01*
X431169Y338599D01*
X431198Y338705D01*
X431223Y338813D01*
X431245Y338921D01*
X431262Y339031D01*
X431276Y339140D01*
X431285Y339250D01*
X431291Y339361D01*
X431293Y339471D01*
X430318Y337199D02*
X424801Y330708D01*
X431292Y330708D01*
D12*
X442350Y519650D02*
X468850Y519650D01*
X468850Y513650D01*
X468850Y483650D02*
X442350Y483650D01*
X468850Y483650D02*
X468850Y489650D01*
D14*
X420193Y517230D02*
X420195Y517299D01*
X420201Y517368D01*
X420211Y517436D01*
X420225Y517504D01*
X420242Y517571D01*
X420264Y517637D01*
X420289Y517701D01*
X420318Y517764D01*
X420351Y517825D01*
X420387Y517884D01*
X420426Y517941D01*
X420469Y517995D01*
X420514Y518047D01*
X420563Y518097D01*
X420614Y518143D01*
X420668Y518186D01*
X420725Y518227D01*
X420783Y518263D01*
X420844Y518297D01*
X420906Y518327D01*
X420970Y518353D01*
X421035Y518375D01*
X421102Y518394D01*
X421170Y518409D01*
X421238Y518420D01*
X421307Y518427D01*
X421376Y518430D01*
X421445Y518429D01*
X421514Y518424D01*
X421582Y518415D01*
X421650Y518402D01*
X421717Y518385D01*
X421784Y518365D01*
X421848Y518340D01*
X421911Y518312D01*
X421973Y518281D01*
X422032Y518245D01*
X422090Y518207D01*
X422145Y518165D01*
X422198Y518120D01*
X422248Y518072D01*
X422295Y518022D01*
X422339Y517968D01*
X422380Y517913D01*
X422418Y517855D01*
X422452Y517795D01*
X422483Y517733D01*
X422510Y517669D01*
X422533Y517604D01*
X422553Y517538D01*
X422569Y517470D01*
X422581Y517402D01*
X422589Y517334D01*
X422593Y517265D01*
X422593Y517195D01*
X422589Y517126D01*
X422581Y517058D01*
X422569Y516990D01*
X422553Y516922D01*
X422533Y516856D01*
X422510Y516791D01*
X422483Y516727D01*
X422452Y516665D01*
X422418Y516605D01*
X422380Y516547D01*
X422339Y516492D01*
X422295Y516438D01*
X422248Y516388D01*
X422198Y516340D01*
X422145Y516295D01*
X422090Y516253D01*
X422032Y516215D01*
X421973Y516179D01*
X421911Y516148D01*
X421848Y516120D01*
X421784Y516095D01*
X421717Y516075D01*
X421650Y516058D01*
X421582Y516045D01*
X421514Y516036D01*
X421445Y516031D01*
X421376Y516030D01*
X421307Y516033D01*
X421238Y516040D01*
X421170Y516051D01*
X421102Y516066D01*
X421035Y516085D01*
X420970Y516107D01*
X420906Y516133D01*
X420844Y516163D01*
X420783Y516197D01*
X420725Y516233D01*
X420668Y516274D01*
X420614Y516317D01*
X420563Y516363D01*
X420514Y516413D01*
X420469Y516465D01*
X420426Y516519D01*
X420387Y516576D01*
X420351Y516635D01*
X420318Y516696D01*
X420289Y516759D01*
X420264Y516823D01*
X420242Y516889D01*
X420225Y516956D01*
X420211Y517024D01*
X420201Y517092D01*
X420195Y517161D01*
X420193Y517230D01*
D13*
X422546Y525892D02*
X422546Y537578D01*
X425792Y537578D01*
X425905Y537576D01*
X426018Y537570D01*
X426131Y537560D01*
X426244Y537546D01*
X426356Y537529D01*
X426467Y537507D01*
X426577Y537482D01*
X426687Y537452D01*
X426795Y537419D01*
X426902Y537382D01*
X427008Y537342D01*
X427112Y537297D01*
X427215Y537249D01*
X427316Y537198D01*
X427415Y537143D01*
X427512Y537085D01*
X427607Y537023D01*
X427700Y536958D01*
X427790Y536890D01*
X427878Y536819D01*
X427964Y536744D01*
X428047Y536667D01*
X428127Y536587D01*
X428204Y536504D01*
X428279Y536418D01*
X428350Y536330D01*
X428418Y536240D01*
X428483Y536147D01*
X428545Y536052D01*
X428603Y535955D01*
X428658Y535856D01*
X428709Y535755D01*
X428757Y535652D01*
X428802Y535548D01*
X428842Y535442D01*
X428879Y535335D01*
X428912Y535227D01*
X428942Y535117D01*
X428967Y535007D01*
X428989Y534896D01*
X429006Y534784D01*
X429020Y534671D01*
X429030Y534558D01*
X429036Y534445D01*
X429038Y534332D01*
X429036Y534219D01*
X429030Y534106D01*
X429020Y533993D01*
X429006Y533880D01*
X428989Y533768D01*
X428967Y533657D01*
X428942Y533547D01*
X428912Y533437D01*
X428879Y533329D01*
X428842Y533222D01*
X428802Y533116D01*
X428757Y533012D01*
X428709Y532909D01*
X428658Y532808D01*
X428603Y532709D01*
X428545Y532612D01*
X428483Y532517D01*
X428418Y532424D01*
X428350Y532334D01*
X428279Y532246D01*
X428204Y532160D01*
X428127Y532077D01*
X428047Y531997D01*
X427964Y531920D01*
X427878Y531845D01*
X427790Y531774D01*
X427700Y531706D01*
X427607Y531641D01*
X427512Y531579D01*
X427415Y531521D01*
X427316Y531466D01*
X427215Y531415D01*
X427112Y531367D01*
X427008Y531322D01*
X426902Y531282D01*
X426795Y531245D01*
X426687Y531212D01*
X426577Y531182D01*
X426467Y531157D01*
X426356Y531135D01*
X426244Y531118D01*
X426131Y531104D01*
X426018Y531094D01*
X425905Y531088D01*
X425792Y531086D01*
X425792Y531085D02*
X422546Y531085D01*
X426441Y531085D02*
X429038Y525892D01*
X433904Y525892D02*
X437150Y525892D01*
X437263Y525894D01*
X437376Y525900D01*
X437489Y525910D01*
X437602Y525924D01*
X437714Y525941D01*
X437825Y525963D01*
X437935Y525988D01*
X438045Y526018D01*
X438153Y526051D01*
X438260Y526088D01*
X438366Y526128D01*
X438470Y526173D01*
X438573Y526221D01*
X438674Y526272D01*
X438773Y526327D01*
X438870Y526385D01*
X438965Y526447D01*
X439058Y526512D01*
X439148Y526580D01*
X439236Y526651D01*
X439322Y526726D01*
X439405Y526803D01*
X439485Y526883D01*
X439562Y526966D01*
X439637Y527052D01*
X439708Y527140D01*
X439776Y527230D01*
X439841Y527323D01*
X439903Y527418D01*
X439961Y527515D01*
X440016Y527614D01*
X440067Y527715D01*
X440115Y527818D01*
X440160Y527922D01*
X440200Y528028D01*
X440237Y528135D01*
X440270Y528243D01*
X440300Y528353D01*
X440325Y528463D01*
X440347Y528574D01*
X440364Y528686D01*
X440378Y528799D01*
X440388Y528912D01*
X440394Y529025D01*
X440396Y529138D01*
X440394Y529251D01*
X440388Y529364D01*
X440378Y529477D01*
X440364Y529590D01*
X440347Y529702D01*
X440325Y529813D01*
X440300Y529923D01*
X440270Y530033D01*
X440237Y530141D01*
X440200Y530248D01*
X440160Y530354D01*
X440115Y530458D01*
X440067Y530561D01*
X440016Y530662D01*
X439961Y530761D01*
X439903Y530858D01*
X439841Y530953D01*
X439776Y531046D01*
X439708Y531136D01*
X439637Y531224D01*
X439562Y531310D01*
X439485Y531393D01*
X439405Y531473D01*
X439322Y531550D01*
X439236Y531625D01*
X439148Y531696D01*
X439058Y531764D01*
X438965Y531829D01*
X438870Y531891D01*
X438773Y531949D01*
X438674Y532004D01*
X438573Y532055D01*
X438470Y532103D01*
X438366Y532148D01*
X438260Y532188D01*
X438153Y532225D01*
X438045Y532258D01*
X437935Y532288D01*
X437825Y532313D01*
X437714Y532335D01*
X437602Y532352D01*
X437489Y532366D01*
X437376Y532376D01*
X437263Y532382D01*
X437150Y532384D01*
X437800Y537578D02*
X433904Y537578D01*
X437800Y537578D02*
X437901Y537576D01*
X438001Y537570D01*
X438101Y537560D01*
X438201Y537547D01*
X438300Y537529D01*
X438399Y537508D01*
X438496Y537483D01*
X438593Y537454D01*
X438688Y537421D01*
X438782Y537385D01*
X438875Y537345D01*
X438966Y537302D01*
X439055Y537255D01*
X439142Y537204D01*
X439227Y537151D01*
X439310Y537094D01*
X439391Y537034D01*
X439469Y536970D01*
X439545Y536904D01*
X439618Y536835D01*
X439689Y536763D01*
X439757Y536689D01*
X439821Y536611D01*
X439883Y536532D01*
X439942Y536450D01*
X439997Y536366D01*
X440049Y536280D01*
X440098Y536191D01*
X440143Y536101D01*
X440185Y536010D01*
X440223Y535916D01*
X440257Y535822D01*
X440288Y535726D01*
X440315Y535629D01*
X440338Y535531D01*
X440358Y535432D01*
X440373Y535332D01*
X440385Y535232D01*
X440393Y535132D01*
X440397Y535031D01*
X440397Y534931D01*
X440393Y534830D01*
X440385Y534730D01*
X440373Y534630D01*
X440358Y534530D01*
X440338Y534431D01*
X440315Y534333D01*
X440288Y534236D01*
X440257Y534140D01*
X440223Y534046D01*
X440185Y533952D01*
X440143Y533861D01*
X440098Y533771D01*
X440049Y533683D01*
X439997Y533596D01*
X439942Y533512D01*
X439883Y533430D01*
X439821Y533351D01*
X439757Y533273D01*
X439689Y533199D01*
X439618Y533127D01*
X439545Y533058D01*
X439469Y532992D01*
X439391Y532928D01*
X439310Y532868D01*
X439227Y532811D01*
X439142Y532758D01*
X439055Y532707D01*
X438966Y532660D01*
X438875Y532617D01*
X438782Y532577D01*
X438688Y532541D01*
X438593Y532508D01*
X438496Y532479D01*
X438399Y532454D01*
X438300Y532433D01*
X438201Y532415D01*
X438101Y532402D01*
X438001Y532392D01*
X437901Y532386D01*
X437800Y532384D01*
X435203Y532384D01*
D12*
X2540Y311010D02*
X740Y311010D01*
X740Y230010D01*
X2540Y230010D01*
X27940Y311010D02*
X43740Y311010D01*
X43740Y288710D01*
X43740Y252310D02*
X43740Y230010D01*
X27940Y230010D01*
D11*
X47240Y291510D02*
X47242Y291573D01*
X47248Y291635D01*
X47258Y291697D01*
X47271Y291759D01*
X47289Y291819D01*
X47310Y291878D01*
X47335Y291936D01*
X47364Y291992D01*
X47396Y292046D01*
X47431Y292098D01*
X47469Y292147D01*
X47511Y292195D01*
X47555Y292239D01*
X47603Y292281D01*
X47652Y292319D01*
X47704Y292354D01*
X47758Y292386D01*
X47814Y292415D01*
X47872Y292440D01*
X47931Y292461D01*
X47991Y292479D01*
X48053Y292492D01*
X48115Y292502D01*
X48177Y292508D01*
X48240Y292510D01*
X48303Y292508D01*
X48365Y292502D01*
X48427Y292492D01*
X48489Y292479D01*
X48549Y292461D01*
X48608Y292440D01*
X48666Y292415D01*
X48722Y292386D01*
X48776Y292354D01*
X48828Y292319D01*
X48877Y292281D01*
X48925Y292239D01*
X48969Y292195D01*
X49011Y292147D01*
X49049Y292098D01*
X49084Y292046D01*
X49116Y291992D01*
X49145Y291936D01*
X49170Y291878D01*
X49191Y291819D01*
X49209Y291759D01*
X49222Y291697D01*
X49232Y291635D01*
X49238Y291573D01*
X49240Y291510D01*
X49238Y291447D01*
X49232Y291385D01*
X49222Y291323D01*
X49209Y291261D01*
X49191Y291201D01*
X49170Y291142D01*
X49145Y291084D01*
X49116Y291028D01*
X49084Y290974D01*
X49049Y290922D01*
X49011Y290873D01*
X48969Y290825D01*
X48925Y290781D01*
X48877Y290739D01*
X48828Y290701D01*
X48776Y290666D01*
X48722Y290634D01*
X48666Y290605D01*
X48608Y290580D01*
X48549Y290559D01*
X48489Y290541D01*
X48427Y290528D01*
X48365Y290518D01*
X48303Y290512D01*
X48240Y290510D01*
X48177Y290512D01*
X48115Y290518D01*
X48053Y290528D01*
X47991Y290541D01*
X47931Y290559D01*
X47872Y290580D01*
X47814Y290605D01*
X47758Y290634D01*
X47704Y290666D01*
X47652Y290701D01*
X47603Y290739D01*
X47555Y290781D01*
X47511Y290825D01*
X47469Y290873D01*
X47431Y290922D01*
X47396Y290974D01*
X47364Y291028D01*
X47335Y291084D01*
X47310Y291142D01*
X47289Y291201D01*
X47271Y291261D01*
X47258Y291323D01*
X47248Y291385D01*
X47242Y291447D01*
X47240Y291510D01*
D13*
X66748Y298238D02*
X75836Y298238D01*
X75836Y298237D02*
X75935Y298235D01*
X76035Y298229D01*
X76134Y298220D01*
X76232Y298207D01*
X76330Y298190D01*
X76428Y298169D01*
X76524Y298144D01*
X76619Y298116D01*
X76713Y298084D01*
X76806Y298049D01*
X76898Y298010D01*
X76988Y297967D01*
X77076Y297922D01*
X77163Y297872D01*
X77247Y297820D01*
X77330Y297764D01*
X77410Y297706D01*
X77488Y297644D01*
X77563Y297579D01*
X77636Y297511D01*
X77706Y297441D01*
X77774Y297368D01*
X77839Y297293D01*
X77901Y297215D01*
X77959Y297135D01*
X78015Y297052D01*
X78067Y296968D01*
X78117Y296881D01*
X78162Y296793D01*
X78205Y296703D01*
X78244Y296611D01*
X78279Y296518D01*
X78311Y296424D01*
X78339Y296329D01*
X78364Y296233D01*
X78385Y296135D01*
X78402Y296037D01*
X78415Y295939D01*
X78424Y295840D01*
X78430Y295740D01*
X78432Y295641D01*
X78432Y294343D01*
X69344Y303511D02*
X66748Y306756D01*
X78432Y306756D01*
X78432Y303511D02*
X78432Y310002D01*
X99822Y415854D02*
X99822Y418451D01*
X99822Y415854D02*
X99820Y415755D01*
X99814Y415655D01*
X99805Y415556D01*
X99792Y415458D01*
X99775Y415360D01*
X99754Y415262D01*
X99729Y415166D01*
X99701Y415071D01*
X99669Y414977D01*
X99634Y414884D01*
X99595Y414792D01*
X99552Y414702D01*
X99507Y414614D01*
X99457Y414527D01*
X99405Y414443D01*
X99349Y414360D01*
X99291Y414280D01*
X99229Y414202D01*
X99164Y414127D01*
X99096Y414054D01*
X99026Y413984D01*
X98953Y413916D01*
X98878Y413851D01*
X98800Y413789D01*
X98720Y413731D01*
X98637Y413675D01*
X98553Y413623D01*
X98466Y413573D01*
X98378Y413528D01*
X98288Y413485D01*
X98196Y413446D01*
X98103Y413411D01*
X98009Y413379D01*
X97914Y413351D01*
X97818Y413326D01*
X97720Y413305D01*
X97622Y413288D01*
X97524Y413275D01*
X97425Y413266D01*
X97325Y413260D01*
X97226Y413258D01*
X90734Y413258D01*
X90635Y413260D01*
X90535Y413266D01*
X90436Y413275D01*
X90338Y413288D01*
X90240Y413306D01*
X90142Y413326D01*
X90046Y413351D01*
X89950Y413379D01*
X89856Y413411D01*
X89763Y413446D01*
X89672Y413485D01*
X89582Y413528D01*
X89493Y413573D01*
X89407Y413623D01*
X89322Y413675D01*
X89240Y413731D01*
X89160Y413790D01*
X89082Y413851D01*
X89006Y413916D01*
X88933Y413984D01*
X88863Y414054D01*
X88795Y414127D01*
X88730Y414203D01*
X88669Y414281D01*
X88610Y414361D01*
X88554Y414443D01*
X88502Y414528D01*
X88453Y414614D01*
X88407Y414703D01*
X88364Y414793D01*
X88325Y414884D01*
X88290Y414977D01*
X88258Y415071D01*
X88230Y415167D01*
X88205Y415263D01*
X88185Y415361D01*
X88167Y415459D01*
X88154Y415557D01*
X88145Y415656D01*
X88139Y415755D01*
X88137Y415855D01*
X88138Y415854D02*
X88138Y418451D01*
X90734Y422816D02*
X88138Y426062D01*
X99822Y426062D01*
X99822Y429307D02*
X99822Y422816D01*
X413258Y435554D02*
X424942Y435554D01*
X413258Y432308D02*
X413258Y438799D01*
X415854Y442976D02*
X413258Y446222D01*
X424942Y446222D01*
X424942Y449467D02*
X424942Y442976D01*
D15*
X456950Y395450D02*
X458700Y393700D01*
X457200Y392200D01*
X455450Y393950D01*
X456950Y395450D01*
D16*
X461200Y396450D03*
D13*
X467708Y370101D02*
X479392Y370101D01*
X479392Y375293D01*
X479392Y380007D02*
X479392Y385199D01*
X479392Y380007D02*
X467708Y380007D01*
X467708Y385199D01*
X472901Y383901D02*
X472901Y380007D01*
X467708Y389890D02*
X479392Y389890D01*
X467708Y389890D02*
X467708Y393135D01*
X467710Y393248D01*
X467716Y393361D01*
X467726Y393474D01*
X467740Y393587D01*
X467757Y393699D01*
X467779Y393810D01*
X467804Y393920D01*
X467834Y394030D01*
X467867Y394138D01*
X467904Y394245D01*
X467944Y394351D01*
X467989Y394455D01*
X468037Y394558D01*
X468088Y394659D01*
X468143Y394758D01*
X468201Y394855D01*
X468263Y394950D01*
X468328Y395043D01*
X468396Y395133D01*
X468467Y395221D01*
X468542Y395307D01*
X468619Y395390D01*
X468699Y395470D01*
X468782Y395547D01*
X468868Y395622D01*
X468956Y395693D01*
X469046Y395761D01*
X469139Y395826D01*
X469234Y395888D01*
X469331Y395946D01*
X469430Y396001D01*
X469531Y396052D01*
X469634Y396100D01*
X469738Y396145D01*
X469844Y396185D01*
X469951Y396222D01*
X470059Y396255D01*
X470169Y396285D01*
X470279Y396310D01*
X470390Y396332D01*
X470502Y396349D01*
X470615Y396363D01*
X470728Y396373D01*
X470841Y396379D01*
X470954Y396381D01*
X476146Y396381D01*
X476146Y396382D02*
X476259Y396380D01*
X476372Y396374D01*
X476485Y396364D01*
X476598Y396350D01*
X476710Y396333D01*
X476821Y396311D01*
X476931Y396286D01*
X477041Y396256D01*
X477149Y396223D01*
X477256Y396186D01*
X477362Y396146D01*
X477466Y396101D01*
X477569Y396053D01*
X477670Y396002D01*
X477769Y395947D01*
X477866Y395889D01*
X477961Y395827D01*
X478054Y395762D01*
X478144Y395694D01*
X478232Y395623D01*
X478318Y395548D01*
X478401Y395471D01*
X478481Y395391D01*
X478558Y395308D01*
X478633Y395222D01*
X478704Y395134D01*
X478772Y395044D01*
X478837Y394951D01*
X478899Y394856D01*
X478957Y394759D01*
X479012Y394660D01*
X479063Y394559D01*
X479111Y394456D01*
X479156Y394352D01*
X479196Y394246D01*
X479233Y394139D01*
X479266Y394031D01*
X479296Y393921D01*
X479321Y393811D01*
X479343Y393700D01*
X479360Y393588D01*
X479374Y393475D01*
X479384Y393362D01*
X479390Y393249D01*
X479392Y393136D01*
X479392Y393135D02*
X479392Y389890D01*
X470304Y401701D02*
X467708Y404946D01*
X479392Y404946D01*
X479392Y401701D02*
X479392Y408192D01*
X278892Y245054D02*
X267208Y245054D01*
X267208Y248299D02*
X267208Y241808D01*
X267208Y253026D02*
X278892Y253026D01*
X267208Y253026D02*
X267208Y256272D01*
X267210Y256385D01*
X267216Y256498D01*
X267226Y256611D01*
X267240Y256724D01*
X267257Y256836D01*
X267279Y256947D01*
X267304Y257057D01*
X267334Y257167D01*
X267367Y257275D01*
X267404Y257382D01*
X267444Y257488D01*
X267489Y257592D01*
X267537Y257695D01*
X267588Y257796D01*
X267643Y257895D01*
X267701Y257992D01*
X267763Y258087D01*
X267828Y258180D01*
X267896Y258270D01*
X267967Y258358D01*
X268042Y258444D01*
X268119Y258527D01*
X268199Y258607D01*
X268282Y258684D01*
X268368Y258759D01*
X268456Y258830D01*
X268546Y258898D01*
X268639Y258963D01*
X268734Y259025D01*
X268831Y259083D01*
X268930Y259138D01*
X269031Y259189D01*
X269134Y259237D01*
X269238Y259282D01*
X269344Y259322D01*
X269451Y259359D01*
X269559Y259392D01*
X269669Y259422D01*
X269779Y259447D01*
X269890Y259469D01*
X270002Y259486D01*
X270115Y259500D01*
X270228Y259510D01*
X270341Y259516D01*
X270454Y259518D01*
X270567Y259516D01*
X270680Y259510D01*
X270793Y259500D01*
X270906Y259486D01*
X271018Y259469D01*
X271129Y259447D01*
X271239Y259422D01*
X271349Y259392D01*
X271457Y259359D01*
X271564Y259322D01*
X271670Y259282D01*
X271774Y259237D01*
X271877Y259189D01*
X271978Y259138D01*
X272077Y259083D01*
X272174Y259025D01*
X272269Y258963D01*
X272362Y258898D01*
X272452Y258830D01*
X272540Y258759D01*
X272626Y258684D01*
X272709Y258607D01*
X272789Y258527D01*
X272866Y258444D01*
X272941Y258358D01*
X273012Y258270D01*
X273080Y258180D01*
X273145Y258087D01*
X273207Y257992D01*
X273265Y257895D01*
X273320Y257796D01*
X273371Y257695D01*
X273419Y257592D01*
X273464Y257488D01*
X273504Y257382D01*
X273541Y257275D01*
X273574Y257167D01*
X273604Y257057D01*
X273629Y256947D01*
X273651Y256836D01*
X273668Y256724D01*
X273682Y256611D01*
X273692Y256498D01*
X273698Y256385D01*
X273700Y256272D01*
X273699Y256272D02*
X273699Y253026D01*
X276296Y263906D02*
X267208Y266502D01*
X276296Y263906D02*
X276296Y270397D01*
X273699Y268450D02*
X278892Y268450D01*
X293878Y353879D02*
X305562Y353879D01*
X293878Y350633D02*
X293878Y357124D01*
X293878Y361851D02*
X305562Y361851D01*
X293878Y361851D02*
X293878Y365097D01*
X293880Y365210D01*
X293886Y365323D01*
X293896Y365436D01*
X293910Y365549D01*
X293927Y365661D01*
X293949Y365772D01*
X293974Y365882D01*
X294004Y365992D01*
X294037Y366100D01*
X294074Y366207D01*
X294114Y366313D01*
X294159Y366417D01*
X294207Y366520D01*
X294258Y366621D01*
X294313Y366720D01*
X294371Y366817D01*
X294433Y366912D01*
X294498Y367005D01*
X294566Y367095D01*
X294637Y367183D01*
X294712Y367269D01*
X294789Y367352D01*
X294869Y367432D01*
X294952Y367509D01*
X295038Y367584D01*
X295126Y367655D01*
X295216Y367723D01*
X295309Y367788D01*
X295404Y367850D01*
X295501Y367908D01*
X295600Y367963D01*
X295701Y368014D01*
X295804Y368062D01*
X295908Y368107D01*
X296014Y368147D01*
X296121Y368184D01*
X296229Y368217D01*
X296339Y368247D01*
X296449Y368272D01*
X296560Y368294D01*
X296672Y368311D01*
X296785Y368325D01*
X296898Y368335D01*
X297011Y368341D01*
X297124Y368343D01*
X297237Y368341D01*
X297350Y368335D01*
X297463Y368325D01*
X297576Y368311D01*
X297688Y368294D01*
X297799Y368272D01*
X297909Y368247D01*
X298019Y368217D01*
X298127Y368184D01*
X298234Y368147D01*
X298340Y368107D01*
X298444Y368062D01*
X298547Y368014D01*
X298648Y367963D01*
X298747Y367908D01*
X298844Y367850D01*
X298939Y367788D01*
X299032Y367723D01*
X299122Y367655D01*
X299210Y367584D01*
X299296Y367509D01*
X299379Y367432D01*
X299459Y367352D01*
X299536Y367269D01*
X299611Y367183D01*
X299682Y367095D01*
X299750Y367005D01*
X299815Y366912D01*
X299877Y366817D01*
X299935Y366720D01*
X299990Y366621D01*
X300041Y366520D01*
X300089Y366417D01*
X300134Y366313D01*
X300174Y366207D01*
X300211Y366100D01*
X300244Y365992D01*
X300274Y365882D01*
X300299Y365772D01*
X300321Y365661D01*
X300338Y365549D01*
X300352Y365436D01*
X300362Y365323D01*
X300368Y365210D01*
X300370Y365097D01*
X300369Y365097D02*
X300369Y361851D01*
X305562Y372731D02*
X305562Y375976D01*
X305560Y376089D01*
X305554Y376202D01*
X305544Y376315D01*
X305530Y376428D01*
X305513Y376540D01*
X305491Y376651D01*
X305466Y376761D01*
X305436Y376871D01*
X305403Y376979D01*
X305366Y377086D01*
X305326Y377192D01*
X305281Y377296D01*
X305233Y377399D01*
X305182Y377500D01*
X305127Y377599D01*
X305069Y377696D01*
X305007Y377791D01*
X304942Y377884D01*
X304874Y377974D01*
X304803Y378062D01*
X304728Y378148D01*
X304651Y378231D01*
X304571Y378311D01*
X304488Y378388D01*
X304402Y378463D01*
X304314Y378534D01*
X304224Y378602D01*
X304131Y378667D01*
X304036Y378729D01*
X303939Y378787D01*
X303840Y378842D01*
X303739Y378893D01*
X303636Y378941D01*
X303532Y378986D01*
X303426Y379026D01*
X303319Y379063D01*
X303211Y379096D01*
X303101Y379126D01*
X302991Y379151D01*
X302880Y379173D01*
X302768Y379190D01*
X302655Y379204D01*
X302542Y379214D01*
X302429Y379220D01*
X302316Y379222D01*
X302203Y379220D01*
X302090Y379214D01*
X301977Y379204D01*
X301864Y379190D01*
X301752Y379173D01*
X301641Y379151D01*
X301531Y379126D01*
X301421Y379096D01*
X301313Y379063D01*
X301206Y379026D01*
X301100Y378986D01*
X300996Y378941D01*
X300893Y378893D01*
X300792Y378842D01*
X300693Y378787D01*
X300596Y378729D01*
X300501Y378667D01*
X300408Y378602D01*
X300318Y378534D01*
X300230Y378463D01*
X300144Y378388D01*
X300061Y378311D01*
X299981Y378231D01*
X299904Y378148D01*
X299829Y378062D01*
X299758Y377974D01*
X299690Y377884D01*
X299625Y377791D01*
X299563Y377696D01*
X299505Y377599D01*
X299450Y377500D01*
X299399Y377399D01*
X299351Y377296D01*
X299306Y377192D01*
X299266Y377086D01*
X299229Y376979D01*
X299196Y376871D01*
X299166Y376761D01*
X299141Y376651D01*
X299119Y376540D01*
X299102Y376428D01*
X299088Y376315D01*
X299078Y376202D01*
X299072Y376089D01*
X299070Y375976D01*
X293878Y376626D02*
X293878Y372731D01*
X293878Y376626D02*
X293880Y376727D01*
X293886Y376827D01*
X293896Y376927D01*
X293909Y377027D01*
X293927Y377126D01*
X293948Y377225D01*
X293973Y377322D01*
X294002Y377419D01*
X294035Y377514D01*
X294071Y377608D01*
X294111Y377700D01*
X294154Y377791D01*
X294201Y377880D01*
X294251Y377967D01*
X294305Y378053D01*
X294362Y378136D01*
X294422Y378216D01*
X294485Y378295D01*
X294552Y378371D01*
X294621Y378444D01*
X294693Y378514D01*
X294767Y378582D01*
X294844Y378647D01*
X294924Y378708D01*
X295006Y378767D01*
X295090Y378822D01*
X295176Y378874D01*
X295264Y378923D01*
X295354Y378968D01*
X295446Y379010D01*
X295539Y379048D01*
X295634Y379082D01*
X295729Y379113D01*
X295826Y379140D01*
X295924Y379163D01*
X296023Y379183D01*
X296123Y379198D01*
X296223Y379210D01*
X296323Y379218D01*
X296424Y379222D01*
X296524Y379222D01*
X296625Y379218D01*
X296725Y379210D01*
X296825Y379198D01*
X296925Y379183D01*
X297024Y379163D01*
X297122Y379140D01*
X297219Y379113D01*
X297314Y379082D01*
X297409Y379048D01*
X297502Y379010D01*
X297594Y378968D01*
X297684Y378923D01*
X297772Y378874D01*
X297858Y378822D01*
X297942Y378767D01*
X298024Y378708D01*
X298104Y378647D01*
X298181Y378582D01*
X298255Y378514D01*
X298327Y378444D01*
X298396Y378371D01*
X298463Y378295D01*
X298526Y378216D01*
X298586Y378136D01*
X298643Y378053D01*
X298697Y377967D01*
X298747Y377880D01*
X298794Y377791D01*
X298837Y377700D01*
X298877Y377608D01*
X298913Y377514D01*
X298946Y377419D01*
X298975Y377322D01*
X299000Y377225D01*
X299021Y377126D01*
X299039Y377027D01*
X299052Y376927D01*
X299062Y376827D01*
X299068Y376727D01*
X299070Y376626D01*
X299071Y376626D02*
X299071Y374029D01*
X276804Y528828D02*
X276804Y540512D01*
X280049Y540512D02*
X273558Y540512D01*
X284776Y540512D02*
X284776Y528828D01*
X284776Y540512D02*
X288022Y540512D01*
X288135Y540510D01*
X288248Y540504D01*
X288361Y540494D01*
X288474Y540480D01*
X288586Y540463D01*
X288697Y540441D01*
X288807Y540416D01*
X288917Y540386D01*
X289025Y540353D01*
X289132Y540316D01*
X289238Y540276D01*
X289342Y540231D01*
X289445Y540183D01*
X289546Y540132D01*
X289645Y540077D01*
X289742Y540019D01*
X289837Y539957D01*
X289930Y539892D01*
X290020Y539824D01*
X290108Y539753D01*
X290194Y539678D01*
X290277Y539601D01*
X290357Y539521D01*
X290434Y539438D01*
X290509Y539352D01*
X290580Y539264D01*
X290648Y539174D01*
X290713Y539081D01*
X290775Y538986D01*
X290833Y538889D01*
X290888Y538790D01*
X290939Y538689D01*
X290987Y538586D01*
X291032Y538482D01*
X291072Y538376D01*
X291109Y538269D01*
X291142Y538161D01*
X291172Y538051D01*
X291197Y537941D01*
X291219Y537830D01*
X291236Y537718D01*
X291250Y537605D01*
X291260Y537492D01*
X291266Y537379D01*
X291268Y537266D01*
X291266Y537153D01*
X291260Y537040D01*
X291250Y536927D01*
X291236Y536814D01*
X291219Y536702D01*
X291197Y536591D01*
X291172Y536481D01*
X291142Y536371D01*
X291109Y536263D01*
X291072Y536156D01*
X291032Y536050D01*
X290987Y535946D01*
X290939Y535843D01*
X290888Y535742D01*
X290833Y535643D01*
X290775Y535546D01*
X290713Y535451D01*
X290648Y535358D01*
X290580Y535268D01*
X290509Y535180D01*
X290434Y535094D01*
X290357Y535011D01*
X290277Y534931D01*
X290194Y534854D01*
X290108Y534779D01*
X290020Y534708D01*
X289930Y534640D01*
X289837Y534575D01*
X289742Y534513D01*
X289645Y534455D01*
X289546Y534400D01*
X289445Y534349D01*
X289342Y534301D01*
X289238Y534256D01*
X289132Y534216D01*
X289025Y534179D01*
X288917Y534146D01*
X288807Y534116D01*
X288697Y534091D01*
X288586Y534069D01*
X288474Y534052D01*
X288361Y534038D01*
X288248Y534028D01*
X288135Y534022D01*
X288022Y534020D01*
X288022Y534021D02*
X284776Y534021D01*
X295656Y537916D02*
X298901Y540512D01*
X298901Y528828D01*
X295656Y528828D02*
X302147Y528828D01*
X527558Y537154D02*
X539242Y537154D01*
X527558Y533908D02*
X527558Y540399D01*
X527558Y545126D02*
X539242Y545126D01*
X527558Y545126D02*
X527558Y548372D01*
X527560Y548485D01*
X527566Y548598D01*
X527576Y548711D01*
X527590Y548824D01*
X527607Y548936D01*
X527629Y549047D01*
X527654Y549157D01*
X527684Y549267D01*
X527717Y549375D01*
X527754Y549482D01*
X527794Y549588D01*
X527839Y549692D01*
X527887Y549795D01*
X527938Y549896D01*
X527993Y549995D01*
X528051Y550092D01*
X528113Y550187D01*
X528178Y550280D01*
X528246Y550370D01*
X528317Y550458D01*
X528392Y550544D01*
X528469Y550627D01*
X528549Y550707D01*
X528632Y550784D01*
X528718Y550859D01*
X528806Y550930D01*
X528896Y550998D01*
X528989Y551063D01*
X529084Y551125D01*
X529181Y551183D01*
X529280Y551238D01*
X529381Y551289D01*
X529484Y551337D01*
X529588Y551382D01*
X529694Y551422D01*
X529801Y551459D01*
X529909Y551492D01*
X530019Y551522D01*
X530129Y551547D01*
X530240Y551569D01*
X530352Y551586D01*
X530465Y551600D01*
X530578Y551610D01*
X530691Y551616D01*
X530804Y551618D01*
X530917Y551616D01*
X531030Y551610D01*
X531143Y551600D01*
X531256Y551586D01*
X531368Y551569D01*
X531479Y551547D01*
X531589Y551522D01*
X531699Y551492D01*
X531807Y551459D01*
X531914Y551422D01*
X532020Y551382D01*
X532124Y551337D01*
X532227Y551289D01*
X532328Y551238D01*
X532427Y551183D01*
X532524Y551125D01*
X532619Y551063D01*
X532712Y550998D01*
X532802Y550930D01*
X532890Y550859D01*
X532976Y550784D01*
X533059Y550707D01*
X533139Y550627D01*
X533216Y550544D01*
X533291Y550458D01*
X533362Y550370D01*
X533430Y550280D01*
X533495Y550187D01*
X533557Y550092D01*
X533615Y549995D01*
X533670Y549896D01*
X533721Y549795D01*
X533769Y549692D01*
X533814Y549588D01*
X533854Y549482D01*
X533891Y549375D01*
X533924Y549267D01*
X533954Y549157D01*
X533979Y549047D01*
X534001Y548936D01*
X534018Y548824D01*
X534032Y548711D01*
X534042Y548598D01*
X534048Y548485D01*
X534050Y548372D01*
X534049Y548372D02*
X534049Y545126D01*
X527558Y559576D02*
X527560Y559683D01*
X527566Y559789D01*
X527576Y559895D01*
X527589Y560001D01*
X527607Y560107D01*
X527628Y560211D01*
X527653Y560315D01*
X527682Y560418D01*
X527714Y560519D01*
X527751Y560619D01*
X527791Y560718D01*
X527834Y560816D01*
X527881Y560912D01*
X527932Y561006D01*
X527986Y561098D01*
X528043Y561188D01*
X528103Y561276D01*
X528167Y561361D01*
X528234Y561444D01*
X528304Y561525D01*
X528376Y561603D01*
X528452Y561679D01*
X528530Y561751D01*
X528611Y561821D01*
X528694Y561888D01*
X528779Y561952D01*
X528867Y562012D01*
X528957Y562069D01*
X529049Y562123D01*
X529143Y562174D01*
X529239Y562221D01*
X529337Y562264D01*
X529436Y562304D01*
X529536Y562341D01*
X529637Y562373D01*
X529740Y562402D01*
X529844Y562427D01*
X529948Y562448D01*
X530054Y562466D01*
X530160Y562479D01*
X530266Y562489D01*
X530372Y562495D01*
X530479Y562497D01*
X527558Y559576D02*
X527560Y559455D01*
X527566Y559334D01*
X527576Y559214D01*
X527589Y559093D01*
X527607Y558974D01*
X527628Y558854D01*
X527653Y558736D01*
X527682Y558619D01*
X527715Y558502D01*
X527751Y558387D01*
X527792Y558273D01*
X527835Y558160D01*
X527883Y558048D01*
X527934Y557939D01*
X527989Y557831D01*
X528047Y557724D01*
X528108Y557620D01*
X528173Y557518D01*
X528241Y557418D01*
X528312Y557320D01*
X528386Y557224D01*
X528463Y557131D01*
X528544Y557041D01*
X528627Y556953D01*
X528713Y556868D01*
X528802Y556785D01*
X528893Y556706D01*
X528987Y556629D01*
X529083Y556556D01*
X529181Y556486D01*
X529282Y556419D01*
X529385Y556355D01*
X529490Y556295D01*
X529597Y556237D01*
X529705Y556184D01*
X529815Y556134D01*
X529927Y556088D01*
X530040Y556045D01*
X530155Y556006D01*
X532751Y561523D02*
X532673Y561602D01*
X532593Y561678D01*
X532510Y561751D01*
X532424Y561821D01*
X532337Y561888D01*
X532246Y561952D01*
X532154Y562012D01*
X532060Y562070D01*
X531963Y562124D01*
X531865Y562174D01*
X531765Y562221D01*
X531664Y562265D01*
X531561Y562305D01*
X531456Y562341D01*
X531351Y562373D01*
X531244Y562402D01*
X531137Y562427D01*
X531028Y562449D01*
X530919Y562466D01*
X530810Y562480D01*
X530700Y562489D01*
X530589Y562495D01*
X530479Y562497D01*
X532751Y561523D02*
X539242Y556006D01*
X539242Y562497D01*
X299212Y434848D02*
X287528Y434848D01*
X287528Y438094D01*
X287530Y438207D01*
X287536Y438320D01*
X287546Y438433D01*
X287560Y438546D01*
X287577Y438658D01*
X287599Y438769D01*
X287624Y438879D01*
X287654Y438989D01*
X287687Y439097D01*
X287724Y439204D01*
X287764Y439310D01*
X287809Y439414D01*
X287857Y439517D01*
X287908Y439618D01*
X287963Y439717D01*
X288021Y439814D01*
X288083Y439909D01*
X288148Y440002D01*
X288216Y440092D01*
X288287Y440180D01*
X288362Y440266D01*
X288439Y440349D01*
X288519Y440429D01*
X288602Y440506D01*
X288688Y440581D01*
X288776Y440652D01*
X288866Y440720D01*
X288959Y440785D01*
X289054Y440847D01*
X289151Y440905D01*
X289250Y440960D01*
X289351Y441011D01*
X289454Y441059D01*
X289558Y441104D01*
X289664Y441144D01*
X289771Y441181D01*
X289879Y441214D01*
X289989Y441244D01*
X290099Y441269D01*
X290210Y441291D01*
X290322Y441308D01*
X290435Y441322D01*
X290548Y441332D01*
X290661Y441338D01*
X290774Y441340D01*
X290887Y441338D01*
X291000Y441332D01*
X291113Y441322D01*
X291226Y441308D01*
X291338Y441291D01*
X291449Y441269D01*
X291559Y441244D01*
X291669Y441214D01*
X291777Y441181D01*
X291884Y441144D01*
X291990Y441104D01*
X292094Y441059D01*
X292197Y441011D01*
X292298Y440960D01*
X292397Y440905D01*
X292494Y440847D01*
X292589Y440785D01*
X292682Y440720D01*
X292772Y440652D01*
X292860Y440581D01*
X292946Y440506D01*
X293029Y440429D01*
X293109Y440349D01*
X293186Y440266D01*
X293261Y440180D01*
X293332Y440092D01*
X293400Y440002D01*
X293465Y439909D01*
X293527Y439814D01*
X293585Y439717D01*
X293640Y439618D01*
X293691Y439517D01*
X293739Y439414D01*
X293784Y439310D01*
X293824Y439204D01*
X293861Y439097D01*
X293894Y438989D01*
X293924Y438879D01*
X293949Y438769D01*
X293971Y438658D01*
X293988Y438546D01*
X294002Y438433D01*
X294012Y438320D01*
X294018Y438207D01*
X294020Y438094D01*
X294019Y438094D02*
X294019Y434848D01*
X294019Y438743D02*
X299212Y441339D01*
X290124Y446204D02*
X287528Y449450D01*
X299212Y449450D01*
X299212Y452695D02*
X299212Y446204D01*
M02*
